<mxfile host="65bd71144e">
    <diagram id="vrDVWEbnQrC0QRTr2-PH" name="Page-1">
        <mxGraphModel dx="-869" dy="1354" grid="1" gridSize="10" guides="1" tooltips="1" connect="1" arrows="1" fold="1" page="1" pageScale="1" pageWidth="850" pageHeight="1100" math="0" shadow="0">
            <root>
                <mxCell id="0"/>
                <mxCell id="1" parent="0"/>
                <mxCell id="2" value="" style="ellipse;whiteSpace=wrap;html=1;aspect=fixed;fontSize=30;strokeColor=#000000;fillColor=#FFD966;opacity=80;" parent="1" vertex="1">
                    <mxGeometry x="3115.74" y="310" width="214.83" height="214.83" as="geometry"/>
                </mxCell>
                <mxCell id="3" value="" style="ellipse;whiteSpace=wrap;html=1;aspect=fixed;fillColor=#67AB9F;strokeWidth=4;strokeColor=#000000;" parent="1" vertex="1">
                    <mxGeometry x="3202.3699999999994" y="351.90999999999997" width="40" height="40" as="geometry"/>
                </mxCell>
                <mxCell id="4" value="" style="endArrow=none;html=1;rounded=0;strokeColor=#000000;strokeWidth=4;exitX=0;exitY=0;exitDx=0;exitDy=0;entryX=1;entryY=1;entryDx=0;entryDy=0;" parent="1" source="3" target="3" edge="1">
                    <mxGeometry width="50" height="50" relative="1" as="geometry">
                        <mxPoint x="3218.1499999999996" y="383.65999999999997" as="sourcePoint"/>
                        <mxPoint x="3243.1499999999996" y="352.40999999999997" as="targetPoint"/>
                    </mxGeometry>
                </mxCell>
                <mxCell id="5" value="" style="endArrow=none;html=1;rounded=0;strokeColor=#000000;strokeWidth=4;exitX=0;exitY=1;exitDx=0;exitDy=0;entryX=1;entryY=0;entryDx=0;entryDy=0;" parent="1" source="3" target="3" edge="1">
                    <mxGeometry width="50" height="50" relative="1" as="geometry">
                        <mxPoint x="3174.007864376269" y="328.48233047033625" as="sourcePoint"/>
                        <mxPoint x="3202.461484117605" y="363.62341811969657" as="targetPoint"/>
                    </mxGeometry>
                </mxCell>
                <mxCell id="6" style="edgeStyle=orthogonalEdgeStyle;jumpStyle=none;jumpSize=6;orthogonalLoop=1;jettySize=auto;html=1;entryX=0;entryY=0.5;entryDx=0;entryDy=0;startArrow=none;startFill=0;endArrow=classic;endFill=1;startSize=1;endSize=1;strokeColor=#000000;strokeWidth=3;rounded=1;exitX=0.5;exitY=0;exitDx=0;exitDy=0;" parent="1" source="20" target="3" edge="1">
                    <mxGeometry relative="1" as="geometry">
                        <Array as="points">
                            <mxPoint x="3178.74" y="372"/>
                            <mxPoint x="3202.74" y="372"/>
                        </Array>
                    </mxGeometry>
                </mxCell>
                <mxCell id="7" value="" style="ellipse;whiteSpace=wrap;html=1;aspect=fixed;fillColor=#e1d5e7;strokeColor=#000000;strokeWidth=4;" parent="1" vertex="1">
                    <mxGeometry x="3185.7399999999993" y="435.4200000000001" width="40" height="40" as="geometry"/>
                </mxCell>
                <mxCell id="8" value="" style="endArrow=none;html=1;rounded=0;strokeColor=#000000;entryX=0.5;entryY=0;entryDx=0;entryDy=0;exitX=0.5;exitY=1;exitDx=0;exitDy=0;strokeWidth=4;" parent="1" source="7" target="7" edge="1">
                    <mxGeometry width="50" height="50" relative="1" as="geometry">
                        <mxPoint x="3213.1499999999996" y="398.40999999999997" as="sourcePoint"/>
                        <mxPoint x="3263.1499999999996" y="348.40999999999997" as="targetPoint"/>
                    </mxGeometry>
                </mxCell>
                <mxCell id="9" style="edgeStyle=orthogonalEdgeStyle;rounded=1;jumpStyle=none;jumpSize=6;orthogonalLoop=1;jettySize=auto;html=1;entryX=0.5;entryY=0;entryDx=0;entryDy=0;startArrow=none;startFill=0;endArrow=classic;endFill=1;startSize=1;endSize=1;strokeColor=#000000;strokeWidth=4;" parent="1" source="3" target="7" edge="1">
                    <mxGeometry relative="1" as="geometry"/>
                </mxCell>
                <mxCell id="10" value="" style="endArrow=none;html=1;rounded=0;strokeColor=#000000;entryX=0;entryY=0.5;entryDx=0;entryDy=0;exitX=1;exitY=0.5;exitDx=0;exitDy=0;strokeWidth=4;" parent="1" source="7" target="7" edge="1">
                    <mxGeometry width="50" height="50" relative="1" as="geometry">
                        <mxPoint x="3263.1499999999996" y="298.40999999999997" as="sourcePoint"/>
                        <mxPoint x="3263.1499999999996" y="238.40999999999997" as="targetPoint"/>
                    </mxGeometry>
                </mxCell>
                <mxCell id="11" style="edgeStyle=orthogonalEdgeStyle;rounded=1;orthogonalLoop=1;jettySize=auto;html=1;exitX=1;exitY=0.5;exitDx=0;exitDy=0;entryX=1;entryY=0.5;entryDx=0;entryDy=0;fontSize=30;fontColor=#990000;startArrow=none;startFill=0;endArrow=classic;endFill=1;strokeWidth=2;fillColor=#f8cecc;strokeColor=#b85450;" parent="1" source="12" target="2" edge="1">
                    <mxGeometry relative="1" as="geometry">
                        <Array as="points"/>
                    </mxGeometry>
                </mxCell>
                <mxCell id="12" value="" style="rounded=0;whiteSpace=wrap;html=1;glass=0;strokeColor=#000000;strokeWidth=4;fillColor=#FFD966;" parent="1" vertex="1">
                    <mxGeometry x="3295.7399999999993" y="399.4200000000001" width="20" height="36" as="geometry"/>
                </mxCell>
                <mxCell id="13" value="" style="endArrow=none;html=1;rounded=0;startSize=1;endSize=1;strokeColor=#000000;strokeWidth=4;jumpStyle=none;jumpSize=6;" parent="1" edge="1">
                    <mxGeometry width="50" height="50" relative="1" as="geometry">
                        <mxPoint x="3295.739999999998" y="433.4200000000001" as="sourcePoint"/>
                        <mxPoint x="3305.739999999998" y="422.9200000000001" as="targetPoint"/>
                    </mxGeometry>
                </mxCell>
                <mxCell id="14" value="" style="endArrow=none;html=1;rounded=0;startSize=1;endSize=1;strokeColor=#000000;strokeWidth=4;jumpStyle=none;jumpSize=6;" parent="1" edge="1">
                    <mxGeometry width="50" height="50" relative="1" as="geometry">
                        <mxPoint x="3305.739999999998" y="422.9200000000001" as="sourcePoint"/>
                        <mxPoint x="3315.739999999998" y="432.9200000000001" as="targetPoint"/>
                    </mxGeometry>
                </mxCell>
                <mxCell id="15" style="edgeStyle=orthogonalEdgeStyle;rounded=0;jumpStyle=none;jumpSize=6;orthogonalLoop=1;jettySize=auto;html=1;entryX=0.214;entryY=0.991;entryDx=0;entryDy=0;startArrow=none;startFill=0;endArrow=classic;endFill=1;startSize=1;endSize=1;strokeColor=#000000;strokeWidth=2;entryPerimeter=0;" parent="1" source="7" target="18" edge="1">
                    <mxGeometry relative="1" as="geometry">
                        <Array as="points">
                            <mxPoint x="3235.74" y="455"/>
                            <mxPoint x="3235.74" y="417"/>
                            <mxPoint x="3256.74" y="417"/>
                        </Array>
                    </mxGeometry>
                </mxCell>
                <mxCell id="16" style="rounded=1;orthogonalLoop=1;jettySize=auto;html=1;exitX=0;exitY=0.5;exitDx=0;exitDy=0;entryX=0;entryY=0.5;entryDx=0;entryDy=0;fontSize=30;fontColor=#990000;startArrow=none;startFill=0;endArrow=classic;endFill=1;strokeWidth=2;edgeStyle=orthogonalEdgeStyle;" parent="1" source="2" target="7" edge="1">
                    <mxGeometry relative="1" as="geometry">
                        <Array as="points">
                            <mxPoint x="3155.74" y="417"/>
                            <mxPoint x="3155.74" y="455"/>
                            <mxPoint x="3185.74" y="455"/>
                        </Array>
                    </mxGeometry>
                </mxCell>
                <mxCell id="17" style="edgeStyle=orthogonalEdgeStyle;orthogonalLoop=1;jettySize=auto;html=1;entryX=0;entryY=0.25;entryDx=0;entryDy=0;fontSize=12;fontColor=#000000;strokeWidth=2;endSize=0;rounded=1;fillColor=#f8cecc;strokeColor=#b85450;" parent="1" source="18" target="12" edge="1">
                    <mxGeometry relative="1" as="geometry">
                        <Array as="points">
                            <mxPoint x="3285.74" y="429"/>
                            <mxPoint x="3285.74" y="408"/>
                        </Array>
                    </mxGeometry>
                </mxCell>
                <mxCell id="18" value="" style="shape=trapezoid;perimeter=trapezoidPerimeter;whiteSpace=wrap;html=1;fixedSize=1;fontSize=12;fontColor=#000000;strokeWidth=1;fillColor=#FFD966;rotation=90;size=7.5;" parent="1" vertex="1">
                    <mxGeometry x="3242.37" y="422.91999999999996" width="41.25" height="12.5" as="geometry"/>
                </mxCell>
                <mxCell id="19" value="" style="endArrow=none;html=1;rounded=1;fontSize=12;fontColor=#000000;startSize=0;endSize=0;strokeWidth=4;entryX=0.5;entryY=0;entryDx=0;entryDy=0;startArrow=none;startFill=0;endFill=0;" parent="1" target="2" edge="1">
                    <mxGeometry width="50" height="50" relative="1" as="geometry">
                        <mxPoint x="3222.74" y="240" as="sourcePoint"/>
                        <mxPoint x="3215.74" y="230" as="targetPoint"/>
                    </mxGeometry>
                </mxCell>
                <mxCell id="20" value="" style="whiteSpace=wrap;html=1;aspect=fixed;strokeColor=#000000;strokeWidth=4;fillColor=#FFFFCC;" parent="1" vertex="1">
                    <mxGeometry x="3164.6999999999994" y="392.90999999999997" width="27.5" height="27.5" as="geometry"/>
                </mxCell>
                <mxCell id="21" style="edgeStyle=orthogonalEdgeStyle;rounded=0;orthogonalLoop=1;jettySize=auto;html=1;fontSize=30;fontColor=#990000;startArrow=none;startFill=0;endArrow=none;endFill=0;strokeWidth=5;fillColor=#f8cecc;" parent="1" edge="1">
                    <mxGeometry relative="1" as="geometry">
                        <mxPoint x="3115.6499999999996" y="417.3199999999997" as="targetPoint"/>
                        <Array as="points">
                            <mxPoint x="3095.6499999999996" y="417.31999999999994"/>
                            <mxPoint x="3095.6499999999996" y="417.31999999999994"/>
                        </Array>
                        <mxPoint x="3050.74" y="417" as="sourcePoint"/>
                    </mxGeometry>
                </mxCell>
                <mxCell id="22" value="" style="ellipse;whiteSpace=wrap;html=1;aspect=fixed;fontSize=30;strokeColor=#000000;fillColor=#FFD966;opacity=80;" parent="1" vertex="1">
                    <mxGeometry x="3395.5699999999997" y="308" width="214.83" height="214.83" as="geometry"/>
                </mxCell>
                <mxCell id="23" value="" style="ellipse;whiteSpace=wrap;html=1;aspect=fixed;fillColor=#67AB9F;strokeWidth=4;strokeColor=#000000;" parent="1" vertex="1">
                    <mxGeometry x="3482.1999999999994" y="349.90999999999997" width="40" height="40" as="geometry"/>
                </mxCell>
                <mxCell id="24" value="" style="endArrow=none;html=1;rounded=0;strokeColor=#000000;strokeWidth=4;exitX=0;exitY=0;exitDx=0;exitDy=0;entryX=1;entryY=1;entryDx=0;entryDy=0;" parent="1" source="23" target="23" edge="1">
                    <mxGeometry width="50" height="50" relative="1" as="geometry">
                        <mxPoint x="3497.9799999999996" y="381.65999999999997" as="sourcePoint"/>
                        <mxPoint x="3522.9799999999996" y="350.40999999999997" as="targetPoint"/>
                    </mxGeometry>
                </mxCell>
                <mxCell id="25" value="" style="endArrow=none;html=1;rounded=0;strokeColor=#000000;strokeWidth=4;exitX=0;exitY=1;exitDx=0;exitDy=0;entryX=1;entryY=0;entryDx=0;entryDy=0;" parent="1" source="23" target="23" edge="1">
                    <mxGeometry width="50" height="50" relative="1" as="geometry">
                        <mxPoint x="3453.837864376269" y="326.48233047033625" as="sourcePoint"/>
                        <mxPoint x="3482.291484117605" y="361.62341811969657" as="targetPoint"/>
                    </mxGeometry>
                </mxCell>
                <mxCell id="26" style="edgeStyle=orthogonalEdgeStyle;jumpStyle=none;jumpSize=6;orthogonalLoop=1;jettySize=auto;html=1;entryX=0;entryY=0.5;entryDx=0;entryDy=0;startArrow=none;startFill=0;endArrow=classic;endFill=1;startSize=1;endSize=1;strokeColor=#000000;strokeWidth=3;rounded=1;exitX=0.5;exitY=0;exitDx=0;exitDy=0;" parent="1" source="40" target="23" edge="1">
                    <mxGeometry relative="1" as="geometry">
                        <Array as="points">
                            <mxPoint x="3458.5699999999997" y="370"/>
                            <mxPoint x="3482.5699999999997" y="370"/>
                        </Array>
                    </mxGeometry>
                </mxCell>
                <mxCell id="27" value="" style="ellipse;whiteSpace=wrap;html=1;aspect=fixed;fillColor=#e1d5e7;strokeColor=#000000;strokeWidth=4;" parent="1" vertex="1">
                    <mxGeometry x="3465.5699999999993" y="433.4200000000001" width="40" height="40" as="geometry"/>
                </mxCell>
                <mxCell id="28" value="" style="endArrow=none;html=1;rounded=0;strokeColor=#000000;entryX=0.5;entryY=0;entryDx=0;entryDy=0;exitX=0.5;exitY=1;exitDx=0;exitDy=0;strokeWidth=4;" parent="1" source="27" target="27" edge="1">
                    <mxGeometry width="50" height="50" relative="1" as="geometry">
                        <mxPoint x="3492.9799999999996" y="396.40999999999997" as="sourcePoint"/>
                        <mxPoint x="3542.9799999999996" y="346.40999999999997" as="targetPoint"/>
                    </mxGeometry>
                </mxCell>
                <mxCell id="29" style="edgeStyle=orthogonalEdgeStyle;rounded=1;jumpStyle=none;jumpSize=6;orthogonalLoop=1;jettySize=auto;html=1;entryX=0.5;entryY=0;entryDx=0;entryDy=0;startArrow=none;startFill=0;endArrow=classic;endFill=1;startSize=1;endSize=1;strokeColor=#000000;strokeWidth=4;" parent="1" source="23" target="27" edge="1">
                    <mxGeometry relative="1" as="geometry"/>
                </mxCell>
                <mxCell id="30" value="" style="endArrow=none;html=1;rounded=0;strokeColor=#000000;entryX=0;entryY=0.5;entryDx=0;entryDy=0;exitX=1;exitY=0.5;exitDx=0;exitDy=0;strokeWidth=4;" parent="1" source="27" target="27" edge="1">
                    <mxGeometry width="50" height="50" relative="1" as="geometry">
                        <mxPoint x="3542.9799999999996" y="296.40999999999997" as="sourcePoint"/>
                        <mxPoint x="3542.9799999999996" y="236.40999999999997" as="targetPoint"/>
                    </mxGeometry>
                </mxCell>
                <mxCell id="31" style="edgeStyle=orthogonalEdgeStyle;rounded=1;orthogonalLoop=1;jettySize=auto;html=1;exitX=1;exitY=0.5;exitDx=0;exitDy=0;entryX=1;entryY=0.5;entryDx=0;entryDy=0;fontSize=30;fontColor=#990000;startArrow=none;startFill=0;endArrow=classic;endFill=1;strokeWidth=2;fillColor=#f8cecc;strokeColor=#b85450;" parent="1" source="32" target="22" edge="1">
                    <mxGeometry relative="1" as="geometry">
                        <Array as="points"/>
                    </mxGeometry>
                </mxCell>
                <mxCell id="32" value="" style="rounded=0;whiteSpace=wrap;html=1;glass=0;strokeColor=#000000;strokeWidth=4;fillColor=#FFD966;" parent="1" vertex="1">
                    <mxGeometry x="3575.5699999999993" y="397.4200000000001" width="20" height="36" as="geometry"/>
                </mxCell>
                <mxCell id="33" value="" style="endArrow=none;html=1;rounded=0;startSize=1;endSize=1;strokeColor=#000000;strokeWidth=4;jumpStyle=none;jumpSize=6;" parent="1" edge="1">
                    <mxGeometry width="50" height="50" relative="1" as="geometry">
                        <mxPoint x="3575.569999999998" y="431.4200000000001" as="sourcePoint"/>
                        <mxPoint x="3585.569999999998" y="420.9200000000001" as="targetPoint"/>
                    </mxGeometry>
                </mxCell>
                <mxCell id="34" value="" style="endArrow=none;html=1;rounded=0;startSize=1;endSize=1;strokeColor=#000000;strokeWidth=4;jumpStyle=none;jumpSize=6;" parent="1" edge="1">
                    <mxGeometry width="50" height="50" relative="1" as="geometry">
                        <mxPoint x="3585.569999999998" y="420.9200000000001" as="sourcePoint"/>
                        <mxPoint x="3595.569999999998" y="430.9200000000001" as="targetPoint"/>
                    </mxGeometry>
                </mxCell>
                <mxCell id="35" style="edgeStyle=orthogonalEdgeStyle;rounded=0;jumpStyle=none;jumpSize=6;orthogonalLoop=1;jettySize=auto;html=1;entryX=0.214;entryY=0.991;entryDx=0;entryDy=0;startArrow=none;startFill=0;endArrow=classic;endFill=1;startSize=1;endSize=1;strokeColor=#000000;strokeWidth=2;entryPerimeter=0;" parent="1" source="27" target="38" edge="1">
                    <mxGeometry relative="1" as="geometry">
                        <Array as="points">
                            <mxPoint x="3515.5699999999997" y="453"/>
                            <mxPoint x="3515.5699999999997" y="415"/>
                            <mxPoint x="3536.5699999999997" y="415"/>
                        </Array>
                    </mxGeometry>
                </mxCell>
                <mxCell id="36" style="rounded=1;orthogonalLoop=1;jettySize=auto;html=1;exitX=0;exitY=0.5;exitDx=0;exitDy=0;entryX=0;entryY=0.5;entryDx=0;entryDy=0;fontSize=30;fontColor=#990000;startArrow=none;startFill=0;endArrow=classic;endFill=1;strokeWidth=2;edgeStyle=orthogonalEdgeStyle;" parent="1" source="22" target="27" edge="1">
                    <mxGeometry relative="1" as="geometry">
                        <Array as="points">
                            <mxPoint x="3435.5699999999997" y="415"/>
                            <mxPoint x="3435.5699999999997" y="453"/>
                            <mxPoint x="3465.5699999999997" y="453"/>
                        </Array>
                    </mxGeometry>
                </mxCell>
                <mxCell id="37" style="edgeStyle=orthogonalEdgeStyle;orthogonalLoop=1;jettySize=auto;html=1;entryX=0;entryY=0.25;entryDx=0;entryDy=0;fontSize=12;fontColor=#000000;strokeWidth=2;endSize=0;rounded=1;fillColor=#f8cecc;strokeColor=#b85450;" parent="1" source="38" target="32" edge="1">
                    <mxGeometry relative="1" as="geometry">
                        <Array as="points">
                            <mxPoint x="3565.5699999999997" y="427"/>
                            <mxPoint x="3565.5699999999997" y="406"/>
                        </Array>
                    </mxGeometry>
                </mxCell>
                <mxCell id="38" value="" style="shape=trapezoid;perimeter=trapezoidPerimeter;whiteSpace=wrap;html=1;fixedSize=1;fontSize=12;fontColor=#000000;strokeWidth=1;fillColor=#FFD966;rotation=90;size=7.5;" parent="1" vertex="1">
                    <mxGeometry x="3522.2" y="420.91999999999996" width="41.25" height="12.5" as="geometry"/>
                </mxCell>
                <mxCell id="39" value="" style="endArrow=none;html=1;rounded=1;fontSize=12;fontColor=#000000;startSize=0;endSize=0;strokeWidth=4;entryX=0.5;entryY=0;entryDx=0;entryDy=0;startArrow=none;startFill=0;endFill=0;" parent="1" target="22" edge="1">
                    <mxGeometry width="50" height="50" relative="1" as="geometry">
                        <mxPoint x="3502.5699999999997" y="238" as="sourcePoint"/>
                        <mxPoint x="3495.5699999999997" y="228" as="targetPoint"/>
                    </mxGeometry>
                </mxCell>
                <mxCell id="40" value="" style="whiteSpace=wrap;html=1;aspect=fixed;strokeColor=#000000;strokeWidth=4;fillColor=#FFFFCC;" parent="1" vertex="1">
                    <mxGeometry x="3444.5299999999993" y="390.90999999999997" width="27.5" height="27.5" as="geometry"/>
                </mxCell>
                <mxCell id="41" style="edgeStyle=orthogonalEdgeStyle;rounded=0;orthogonalLoop=1;jettySize=auto;html=1;fontSize=30;fontColor=#990000;startArrow=none;startFill=0;endArrow=none;endFill=0;strokeWidth=5;fillColor=#f8cecc;" parent="1" edge="1">
                    <mxGeometry relative="1" as="geometry">
                        <mxPoint x="3395.4799999999996" y="417.3199999999997" as="targetPoint"/>
                        <Array as="points">
                            <mxPoint x="3375.4799999999996" y="417.31999999999994"/>
                            <mxPoint x="3375.4799999999996" y="417.31999999999994"/>
                        </Array>
                        <mxPoint x="3330.5699999999997" y="417" as="sourcePoint"/>
                    </mxGeometry>
                </mxCell>
                <mxCell id="42" value="" style="ellipse;whiteSpace=wrap;html=1;aspect=fixed;fontSize=30;strokeColor=#000000;fillColor=#FFD966;opacity=80;" parent="1" vertex="1">
                    <mxGeometry x="3675.3999999999996" y="306" width="214.83" height="214.83" as="geometry"/>
                </mxCell>
                <mxCell id="43" value="" style="ellipse;whiteSpace=wrap;html=1;aspect=fixed;fillColor=#67AB9F;strokeWidth=4;strokeColor=#000000;" parent="1" vertex="1">
                    <mxGeometry x="3762.0299999999993" y="347.90999999999997" width="40" height="40" as="geometry"/>
                </mxCell>
                <mxCell id="44" value="" style="endArrow=none;html=1;rounded=0;strokeColor=#000000;strokeWidth=4;exitX=0;exitY=0;exitDx=0;exitDy=0;entryX=1;entryY=1;entryDx=0;entryDy=0;" parent="1" source="43" target="43" edge="1">
                    <mxGeometry width="50" height="50" relative="1" as="geometry">
                        <mxPoint x="3777.8099999999995" y="379.65999999999997" as="sourcePoint"/>
                        <mxPoint x="3802.8099999999995" y="348.40999999999997" as="targetPoint"/>
                    </mxGeometry>
                </mxCell>
                <mxCell id="45" value="" style="endArrow=none;html=1;rounded=0;strokeColor=#000000;strokeWidth=4;exitX=0;exitY=1;exitDx=0;exitDy=0;entryX=1;entryY=0;entryDx=0;entryDy=0;" parent="1" source="43" target="43" edge="1">
                    <mxGeometry width="50" height="50" relative="1" as="geometry">
                        <mxPoint x="3733.667864376269" y="324.48233047033625" as="sourcePoint"/>
                        <mxPoint x="3762.1214841176047" y="359.62341811969657" as="targetPoint"/>
                    </mxGeometry>
                </mxCell>
                <mxCell id="46" style="edgeStyle=orthogonalEdgeStyle;jumpStyle=none;jumpSize=6;orthogonalLoop=1;jettySize=auto;html=1;entryX=0;entryY=0.5;entryDx=0;entryDy=0;startArrow=none;startFill=0;endArrow=classic;endFill=1;startSize=1;endSize=1;strokeColor=#000000;strokeWidth=3;rounded=1;exitX=0.5;exitY=0;exitDx=0;exitDy=0;" parent="1" source="60" target="43" edge="1">
                    <mxGeometry relative="1" as="geometry">
                        <Array as="points">
                            <mxPoint x="3738.3999999999996" y="368"/>
                            <mxPoint x="3762.3999999999996" y="368"/>
                        </Array>
                    </mxGeometry>
                </mxCell>
                <mxCell id="47" value="" style="ellipse;whiteSpace=wrap;html=1;aspect=fixed;fillColor=#e1d5e7;strokeColor=#000000;strokeWidth=4;" parent="1" vertex="1">
                    <mxGeometry x="3745.399999999999" y="431.4200000000001" width="40" height="40" as="geometry"/>
                </mxCell>
                <mxCell id="48" value="" style="endArrow=none;html=1;rounded=0;strokeColor=#000000;entryX=0.5;entryY=0;entryDx=0;entryDy=0;exitX=0.5;exitY=1;exitDx=0;exitDy=0;strokeWidth=4;" parent="1" source="47" target="47" edge="1">
                    <mxGeometry width="50" height="50" relative="1" as="geometry">
                        <mxPoint x="3772.8099999999995" y="394.40999999999997" as="sourcePoint"/>
                        <mxPoint x="3822.8099999999995" y="344.40999999999997" as="targetPoint"/>
                    </mxGeometry>
                </mxCell>
                <mxCell id="49" style="edgeStyle=orthogonalEdgeStyle;rounded=1;jumpStyle=none;jumpSize=6;orthogonalLoop=1;jettySize=auto;html=1;entryX=0.5;entryY=0;entryDx=0;entryDy=0;startArrow=none;startFill=0;endArrow=classic;endFill=1;startSize=1;endSize=1;strokeColor=#000000;strokeWidth=4;" parent="1" source="43" target="47" edge="1">
                    <mxGeometry relative="1" as="geometry"/>
                </mxCell>
                <mxCell id="50" value="" style="endArrow=none;html=1;rounded=0;strokeColor=#000000;entryX=0;entryY=0.5;entryDx=0;entryDy=0;exitX=1;exitY=0.5;exitDx=0;exitDy=0;strokeWidth=4;" parent="1" source="47" target="47" edge="1">
                    <mxGeometry width="50" height="50" relative="1" as="geometry">
                        <mxPoint x="3822.8099999999995" y="294.40999999999997" as="sourcePoint"/>
                        <mxPoint x="3822.8099999999995" y="234.40999999999997" as="targetPoint"/>
                    </mxGeometry>
                </mxCell>
                <mxCell id="51" style="edgeStyle=orthogonalEdgeStyle;rounded=1;orthogonalLoop=1;jettySize=auto;html=1;exitX=1;exitY=0.5;exitDx=0;exitDy=0;entryX=1;entryY=0.5;entryDx=0;entryDy=0;fontSize=30;fontColor=#990000;startArrow=none;startFill=0;endArrow=classic;endFill=1;strokeWidth=2;fillColor=#f8cecc;strokeColor=#b85450;" parent="1" source="52" target="42" edge="1">
                    <mxGeometry relative="1" as="geometry">
                        <Array as="points"/>
                    </mxGeometry>
                </mxCell>
                <mxCell id="52" value="" style="rounded=0;whiteSpace=wrap;html=1;glass=0;strokeColor=#000000;strokeWidth=4;fillColor=#FFD966;" parent="1" vertex="1">
                    <mxGeometry x="3855.399999999999" y="395.4200000000001" width="20" height="36" as="geometry"/>
                </mxCell>
                <mxCell id="53" value="" style="endArrow=none;html=1;rounded=0;startSize=1;endSize=1;strokeColor=#000000;strokeWidth=4;jumpStyle=none;jumpSize=6;" parent="1" edge="1">
                    <mxGeometry width="50" height="50" relative="1" as="geometry">
                        <mxPoint x="3855.399999999998" y="429.4200000000001" as="sourcePoint"/>
                        <mxPoint x="3865.399999999998" y="418.9200000000001" as="targetPoint"/>
                    </mxGeometry>
                </mxCell>
                <mxCell id="54" value="" style="endArrow=none;html=1;rounded=0;startSize=1;endSize=1;strokeColor=#000000;strokeWidth=4;jumpStyle=none;jumpSize=6;" parent="1" edge="1">
                    <mxGeometry width="50" height="50" relative="1" as="geometry">
                        <mxPoint x="3865.399999999998" y="418.9200000000001" as="sourcePoint"/>
                        <mxPoint x="3875.399999999998" y="428.9200000000001" as="targetPoint"/>
                    </mxGeometry>
                </mxCell>
                <mxCell id="55" style="edgeStyle=orthogonalEdgeStyle;rounded=0;jumpStyle=none;jumpSize=6;orthogonalLoop=1;jettySize=auto;html=1;entryX=0.214;entryY=0.991;entryDx=0;entryDy=0;startArrow=none;startFill=0;endArrow=classic;endFill=1;startSize=1;endSize=1;strokeColor=#000000;strokeWidth=2;entryPerimeter=0;" parent="1" source="47" target="58" edge="1">
                    <mxGeometry relative="1" as="geometry">
                        <Array as="points">
                            <mxPoint x="3795.3999999999996" y="451"/>
                            <mxPoint x="3795.3999999999996" y="413"/>
                            <mxPoint x="3816.3999999999996" y="413"/>
                        </Array>
                    </mxGeometry>
                </mxCell>
                <mxCell id="56" style="rounded=1;orthogonalLoop=1;jettySize=auto;html=1;exitX=0;exitY=0.5;exitDx=0;exitDy=0;entryX=0;entryY=0.5;entryDx=0;entryDy=0;fontSize=30;fontColor=#990000;startArrow=none;startFill=0;endArrow=classic;endFill=1;strokeWidth=2;edgeStyle=orthogonalEdgeStyle;" parent="1" source="42" target="47" edge="1">
                    <mxGeometry relative="1" as="geometry">
                        <Array as="points">
                            <mxPoint x="3715.3999999999996" y="413"/>
                            <mxPoint x="3715.3999999999996" y="451"/>
                            <mxPoint x="3745.3999999999996" y="451"/>
                        </Array>
                    </mxGeometry>
                </mxCell>
                <mxCell id="57" style="edgeStyle=orthogonalEdgeStyle;orthogonalLoop=1;jettySize=auto;html=1;entryX=0;entryY=0.25;entryDx=0;entryDy=0;fontSize=12;fontColor=#000000;strokeWidth=2;endSize=0;rounded=1;fillColor=#f8cecc;strokeColor=#b85450;" parent="1" source="58" target="52" edge="1">
                    <mxGeometry relative="1" as="geometry">
                        <Array as="points">
                            <mxPoint x="3845.3999999999996" y="425"/>
                            <mxPoint x="3845.3999999999996" y="404"/>
                        </Array>
                    </mxGeometry>
                </mxCell>
                <mxCell id="58" value="" style="shape=trapezoid;perimeter=trapezoidPerimeter;whiteSpace=wrap;html=1;fixedSize=1;fontSize=12;fontColor=#000000;strokeWidth=1;fillColor=#FFD966;rotation=90;size=7.5;" parent="1" vertex="1">
                    <mxGeometry x="3802.0299999999997" y="418.91999999999996" width="41.25" height="12.5" as="geometry"/>
                </mxCell>
                <mxCell id="59" value="" style="endArrow=none;html=1;rounded=1;fontSize=12;fontColor=#000000;startSize=0;endSize=0;strokeWidth=4;entryX=0.5;entryY=0;entryDx=0;entryDy=0;startArrow=none;startFill=0;endFill=0;" parent="1" target="42" edge="1">
                    <mxGeometry width="50" height="50" relative="1" as="geometry">
                        <mxPoint x="3782.3999999999996" y="236" as="sourcePoint"/>
                        <mxPoint x="3775.3999999999996" y="226" as="targetPoint"/>
                    </mxGeometry>
                </mxCell>
                <mxCell id="60" value="" style="whiteSpace=wrap;html=1;aspect=fixed;strokeColor=#000000;strokeWidth=4;fillColor=#FFFFCC;" parent="1" vertex="1">
                    <mxGeometry x="3724.359999999999" y="388.90999999999997" width="27.5" height="27.5" as="geometry"/>
                </mxCell>
                <mxCell id="61" style="edgeStyle=orthogonalEdgeStyle;rounded=0;orthogonalLoop=1;jettySize=auto;html=1;fontSize=30;fontColor=#990000;startArrow=none;startFill=0;endArrow=none;endFill=0;strokeWidth=5;fillColor=#f8cecc;" parent="1" edge="1">
                    <mxGeometry relative="1" as="geometry">
                        <mxPoint x="3675.3099999999995" y="415.3199999999997" as="targetPoint"/>
                        <Array as="points">
                            <mxPoint x="3655.3099999999995" y="415.31999999999994"/>
                            <mxPoint x="3655.3099999999995" y="415.31999999999994"/>
                        </Array>
                        <mxPoint x="3610.3999999999996" y="415" as="sourcePoint"/>
                    </mxGeometry>
                </mxCell>
                <mxCell id="62" value="" style="ellipse;whiteSpace=wrap;html=1;aspect=fixed;fontSize=30;strokeColor=#000000;fillColor=#FFD966;opacity=80;" parent="1" vertex="1">
                    <mxGeometry x="3115.74" y="600" width="214.83" height="214.83" as="geometry"/>
                </mxCell>
                <mxCell id="63" value="" style="ellipse;whiteSpace=wrap;html=1;aspect=fixed;fillColor=#67AB9F;strokeWidth=4;strokeColor=#000000;" parent="1" vertex="1">
                    <mxGeometry x="3202.3699999999994" y="641.91" width="40" height="40" as="geometry"/>
                </mxCell>
                <mxCell id="64" value="" style="endArrow=none;html=1;rounded=0;strokeColor=#000000;strokeWidth=4;exitX=0;exitY=0;exitDx=0;exitDy=0;entryX=1;entryY=1;entryDx=0;entryDy=0;" parent="1" source="63" target="63" edge="1">
                    <mxGeometry width="50" height="50" relative="1" as="geometry">
                        <mxPoint x="3218.1499999999996" y="673.66" as="sourcePoint"/>
                        <mxPoint x="3243.1499999999996" y="642.41" as="targetPoint"/>
                    </mxGeometry>
                </mxCell>
                <mxCell id="65" value="" style="endArrow=none;html=1;rounded=0;strokeColor=#000000;strokeWidth=4;exitX=0;exitY=1;exitDx=0;exitDy=0;entryX=1;entryY=0;entryDx=0;entryDy=0;" parent="1" source="63" target="63" edge="1">
                    <mxGeometry width="50" height="50" relative="1" as="geometry">
                        <mxPoint x="3174.007864376269" y="618.4823304703363" as="sourcePoint"/>
                        <mxPoint x="3202.461484117605" y="653.6234181196966" as="targetPoint"/>
                    </mxGeometry>
                </mxCell>
                <mxCell id="66" style="edgeStyle=orthogonalEdgeStyle;jumpStyle=none;jumpSize=6;orthogonalLoop=1;jettySize=auto;html=1;entryX=0;entryY=0.5;entryDx=0;entryDy=0;startArrow=none;startFill=0;endArrow=classic;endFill=1;startSize=1;endSize=1;strokeColor=#000000;strokeWidth=3;rounded=1;exitX=0.5;exitY=0;exitDx=0;exitDy=0;" parent="1" source="80" target="63" edge="1">
                    <mxGeometry relative="1" as="geometry">
                        <Array as="points">
                            <mxPoint x="3178.74" y="662"/>
                            <mxPoint x="3202.74" y="662"/>
                        </Array>
                    </mxGeometry>
                </mxCell>
                <mxCell id="67" value="" style="ellipse;whiteSpace=wrap;html=1;aspect=fixed;fillColor=#e1d5e7;strokeColor=#000000;strokeWidth=4;" parent="1" vertex="1">
                    <mxGeometry x="3185.7399999999993" y="725.4200000000001" width="40" height="40" as="geometry"/>
                </mxCell>
                <mxCell id="68" value="" style="endArrow=none;html=1;rounded=0;strokeColor=#000000;entryX=0.5;entryY=0;entryDx=0;entryDy=0;exitX=0.5;exitY=1;exitDx=0;exitDy=0;strokeWidth=4;" parent="1" source="67" target="67" edge="1">
                    <mxGeometry width="50" height="50" relative="1" as="geometry">
                        <mxPoint x="3213.1499999999996" y="688.41" as="sourcePoint"/>
                        <mxPoint x="3263.1499999999996" y="638.41" as="targetPoint"/>
                    </mxGeometry>
                </mxCell>
                <mxCell id="69" style="edgeStyle=orthogonalEdgeStyle;rounded=1;jumpStyle=none;jumpSize=6;orthogonalLoop=1;jettySize=auto;html=1;entryX=0.5;entryY=0;entryDx=0;entryDy=0;startArrow=none;startFill=0;endArrow=classic;endFill=1;startSize=1;endSize=1;strokeColor=#000000;strokeWidth=4;" parent="1" source="63" target="67" edge="1">
                    <mxGeometry relative="1" as="geometry"/>
                </mxCell>
                <mxCell id="70" value="" style="endArrow=none;html=1;rounded=0;strokeColor=#000000;entryX=0;entryY=0.5;entryDx=0;entryDy=0;exitX=1;exitY=0.5;exitDx=0;exitDy=0;strokeWidth=4;" parent="1" source="67" target="67" edge="1">
                    <mxGeometry width="50" height="50" relative="1" as="geometry">
                        <mxPoint x="3263.1499999999996" y="588.41" as="sourcePoint"/>
                        <mxPoint x="3263.1499999999996" y="528.41" as="targetPoint"/>
                    </mxGeometry>
                </mxCell>
                <mxCell id="71" style="edgeStyle=orthogonalEdgeStyle;rounded=1;orthogonalLoop=1;jettySize=auto;html=1;exitX=1;exitY=0.5;exitDx=0;exitDy=0;entryX=1;entryY=0.5;entryDx=0;entryDy=0;fontSize=30;fontColor=#990000;startArrow=none;startFill=0;endArrow=classic;endFill=1;strokeWidth=2;fillColor=#f8cecc;strokeColor=#b85450;" parent="1" source="72" target="62" edge="1">
                    <mxGeometry relative="1" as="geometry">
                        <Array as="points"/>
                    </mxGeometry>
                </mxCell>
                <mxCell id="72" value="" style="rounded=0;whiteSpace=wrap;html=1;glass=0;strokeColor=#000000;strokeWidth=4;fillColor=#FFD966;" parent="1" vertex="1">
                    <mxGeometry x="3295.7399999999993" y="689.4200000000001" width="20" height="36" as="geometry"/>
                </mxCell>
                <mxCell id="73" value="" style="endArrow=none;html=1;rounded=0;startSize=1;endSize=1;strokeColor=#000000;strokeWidth=4;jumpStyle=none;jumpSize=6;" parent="1" edge="1">
                    <mxGeometry width="50" height="50" relative="1" as="geometry">
                        <mxPoint x="3295.739999999998" y="723.4200000000001" as="sourcePoint"/>
                        <mxPoint x="3305.739999999998" y="712.9200000000001" as="targetPoint"/>
                    </mxGeometry>
                </mxCell>
                <mxCell id="74" value="" style="endArrow=none;html=1;rounded=0;startSize=1;endSize=1;strokeColor=#000000;strokeWidth=4;jumpStyle=none;jumpSize=6;" parent="1" edge="1">
                    <mxGeometry width="50" height="50" relative="1" as="geometry">
                        <mxPoint x="3305.739999999998" y="712.9200000000001" as="sourcePoint"/>
                        <mxPoint x="3315.739999999998" y="722.9200000000001" as="targetPoint"/>
                    </mxGeometry>
                </mxCell>
                <mxCell id="75" style="edgeStyle=orthogonalEdgeStyle;rounded=0;jumpStyle=none;jumpSize=6;orthogonalLoop=1;jettySize=auto;html=1;entryX=0.214;entryY=0.991;entryDx=0;entryDy=0;startArrow=none;startFill=0;endArrow=classic;endFill=1;startSize=1;endSize=1;strokeColor=#000000;strokeWidth=2;entryPerimeter=0;" parent="1" source="67" target="78" edge="1">
                    <mxGeometry relative="1" as="geometry">
                        <Array as="points">
                            <mxPoint x="3235.74" y="745"/>
                            <mxPoint x="3235.74" y="707"/>
                            <mxPoint x="3256.74" y="707"/>
                        </Array>
                    </mxGeometry>
                </mxCell>
                <mxCell id="76" style="rounded=1;orthogonalLoop=1;jettySize=auto;html=1;exitX=0;exitY=0.5;exitDx=0;exitDy=0;entryX=0;entryY=0.5;entryDx=0;entryDy=0;fontSize=30;fontColor=#990000;startArrow=none;startFill=0;endArrow=classic;endFill=1;strokeWidth=2;edgeStyle=orthogonalEdgeStyle;" parent="1" source="62" target="67" edge="1">
                    <mxGeometry relative="1" as="geometry">
                        <Array as="points">
                            <mxPoint x="3155.74" y="707"/>
                            <mxPoint x="3155.74" y="745"/>
                            <mxPoint x="3185.74" y="745"/>
                        </Array>
                    </mxGeometry>
                </mxCell>
                <mxCell id="77" style="edgeStyle=orthogonalEdgeStyle;orthogonalLoop=1;jettySize=auto;html=1;entryX=0;entryY=0.25;entryDx=0;entryDy=0;fontSize=12;fontColor=#000000;strokeWidth=2;endSize=0;rounded=1;fillColor=#f8cecc;strokeColor=#b85450;" parent="1" source="78" target="72" edge="1">
                    <mxGeometry relative="1" as="geometry">
                        <Array as="points">
                            <mxPoint x="3285.74" y="719"/>
                            <mxPoint x="3285.74" y="698"/>
                        </Array>
                    </mxGeometry>
                </mxCell>
                <mxCell id="78" value="" style="shape=trapezoid;perimeter=trapezoidPerimeter;whiteSpace=wrap;html=1;fixedSize=1;fontSize=12;fontColor=#000000;strokeWidth=1;fillColor=#FFD966;rotation=90;size=7.5;" parent="1" vertex="1">
                    <mxGeometry x="3242.37" y="712.92" width="41.25" height="12.5" as="geometry"/>
                </mxCell>
                <mxCell id="79" value="" style="endArrow=none;html=1;rounded=1;fontSize=12;fontColor=#000000;startSize=0;endSize=0;strokeWidth=4;entryX=0.5;entryY=0;entryDx=0;entryDy=0;startArrow=none;startFill=0;endFill=0;exitX=0.5;exitY=1;exitDx=0;exitDy=0;" parent="1" source="2" target="62" edge="1">
                    <mxGeometry width="50" height="50" relative="1" as="geometry">
                        <mxPoint x="3222.74" y="530" as="sourcePoint"/>
                        <mxPoint x="3215.74" y="520" as="targetPoint"/>
                    </mxGeometry>
                </mxCell>
                <mxCell id="80" value="" style="whiteSpace=wrap;html=1;aspect=fixed;strokeColor=#000000;strokeWidth=4;fillColor=#FFFFCC;" parent="1" vertex="1">
                    <mxGeometry x="3164.6999999999994" y="682.91" width="27.5" height="27.5" as="geometry"/>
                </mxCell>
                <mxCell id="81" style="edgeStyle=orthogonalEdgeStyle;rounded=0;orthogonalLoop=1;jettySize=auto;html=1;fontSize=30;fontColor=#990000;startArrow=none;startFill=0;endArrow=none;endFill=0;strokeWidth=5;fillColor=#f8cecc;" parent="1" edge="1">
                    <mxGeometry relative="1" as="geometry">
                        <mxPoint x="3115.6499999999996" y="707.3199999999997" as="targetPoint"/>
                        <Array as="points">
                            <mxPoint x="3095.6499999999996" y="707.3199999999999"/>
                            <mxPoint x="3095.6499999999996" y="707.3199999999999"/>
                        </Array>
                        <mxPoint x="3050.74" y="707" as="sourcePoint"/>
                    </mxGeometry>
                </mxCell>
                <mxCell id="82" value="" style="ellipse;whiteSpace=wrap;html=1;aspect=fixed;fontSize=30;strokeColor=#000000;fillColor=#FFD966;opacity=80;" parent="1" vertex="1">
                    <mxGeometry x="3395.5699999999997" y="598" width="214.83" height="214.83" as="geometry"/>
                </mxCell>
                <mxCell id="83" value="" style="ellipse;whiteSpace=wrap;html=1;aspect=fixed;fillColor=#67AB9F;strokeWidth=4;strokeColor=#000000;" parent="1" vertex="1">
                    <mxGeometry x="3482.1999999999994" y="639.91" width="40" height="40" as="geometry"/>
                </mxCell>
                <mxCell id="84" value="" style="endArrow=none;html=1;rounded=0;strokeColor=#000000;strokeWidth=4;exitX=0;exitY=0;exitDx=0;exitDy=0;entryX=1;entryY=1;entryDx=0;entryDy=0;" parent="1" source="83" target="83" edge="1">
                    <mxGeometry width="50" height="50" relative="1" as="geometry">
                        <mxPoint x="3497.9799999999996" y="671.66" as="sourcePoint"/>
                        <mxPoint x="3522.9799999999996" y="640.41" as="targetPoint"/>
                    </mxGeometry>
                </mxCell>
                <mxCell id="85" value="" style="endArrow=none;html=1;rounded=0;strokeColor=#000000;strokeWidth=4;exitX=0;exitY=1;exitDx=0;exitDy=0;entryX=1;entryY=0;entryDx=0;entryDy=0;" parent="1" source="83" target="83" edge="1">
                    <mxGeometry width="50" height="50" relative="1" as="geometry">
                        <mxPoint x="3453.837864376269" y="616.4823304703363" as="sourcePoint"/>
                        <mxPoint x="3482.291484117605" y="651.6234181196966" as="targetPoint"/>
                    </mxGeometry>
                </mxCell>
                <mxCell id="86" style="edgeStyle=orthogonalEdgeStyle;jumpStyle=none;jumpSize=6;orthogonalLoop=1;jettySize=auto;html=1;entryX=0;entryY=0.5;entryDx=0;entryDy=0;startArrow=none;startFill=0;endArrow=classic;endFill=1;startSize=1;endSize=1;strokeColor=#000000;strokeWidth=3;rounded=1;exitX=0.5;exitY=0;exitDx=0;exitDy=0;" parent="1" source="99" target="83" edge="1">
                    <mxGeometry relative="1" as="geometry">
                        <Array as="points">
                            <mxPoint x="3458.5699999999997" y="660"/>
                            <mxPoint x="3482.5699999999997" y="660"/>
                        </Array>
                    </mxGeometry>
                </mxCell>
                <mxCell id="87" value="" style="ellipse;whiteSpace=wrap;html=1;aspect=fixed;fillColor=#e1d5e7;strokeColor=#000000;strokeWidth=4;" parent="1" vertex="1">
                    <mxGeometry x="3465.5699999999993" y="723.4200000000001" width="40" height="40" as="geometry"/>
                </mxCell>
                <mxCell id="88" value="" style="endArrow=none;html=1;rounded=0;strokeColor=#000000;entryX=0.5;entryY=0;entryDx=0;entryDy=0;exitX=0.5;exitY=1;exitDx=0;exitDy=0;strokeWidth=4;" parent="1" source="87" target="87" edge="1">
                    <mxGeometry width="50" height="50" relative="1" as="geometry">
                        <mxPoint x="3492.9799999999996" y="686.41" as="sourcePoint"/>
                        <mxPoint x="3542.9799999999996" y="636.41" as="targetPoint"/>
                    </mxGeometry>
                </mxCell>
                <mxCell id="89" style="edgeStyle=orthogonalEdgeStyle;rounded=1;jumpStyle=none;jumpSize=6;orthogonalLoop=1;jettySize=auto;html=1;entryX=0.5;entryY=0;entryDx=0;entryDy=0;startArrow=none;startFill=0;endArrow=classic;endFill=1;startSize=1;endSize=1;strokeColor=#000000;strokeWidth=4;" parent="1" source="83" target="87" edge="1">
                    <mxGeometry relative="1" as="geometry"/>
                </mxCell>
                <mxCell id="90" value="" style="endArrow=none;html=1;rounded=0;strokeColor=#000000;entryX=0;entryY=0.5;entryDx=0;entryDy=0;exitX=1;exitY=0.5;exitDx=0;exitDy=0;strokeWidth=4;" parent="1" source="87" target="87" edge="1">
                    <mxGeometry width="50" height="50" relative="1" as="geometry">
                        <mxPoint x="3542.9799999999996" y="586.41" as="sourcePoint"/>
                        <mxPoint x="3542.9799999999996" y="526.41" as="targetPoint"/>
                    </mxGeometry>
                </mxCell>
                <mxCell id="91" style="edgeStyle=orthogonalEdgeStyle;rounded=1;orthogonalLoop=1;jettySize=auto;html=1;exitX=1;exitY=0.5;exitDx=0;exitDy=0;entryX=1;entryY=0.5;entryDx=0;entryDy=0;fontSize=30;fontColor=#990000;startArrow=none;startFill=0;endArrow=classic;endFill=1;strokeWidth=2;fillColor=#f8cecc;strokeColor=#b85450;" parent="1" source="92" target="82" edge="1">
                    <mxGeometry relative="1" as="geometry">
                        <Array as="points"/>
                    </mxGeometry>
                </mxCell>
                <mxCell id="92" value="" style="rounded=0;whiteSpace=wrap;html=1;glass=0;strokeColor=#000000;strokeWidth=4;fillColor=#FFD966;" parent="1" vertex="1">
                    <mxGeometry x="3575.5699999999993" y="687.4200000000001" width="20" height="36" as="geometry"/>
                </mxCell>
                <mxCell id="93" value="" style="endArrow=none;html=1;rounded=0;startSize=1;endSize=1;strokeColor=#000000;strokeWidth=4;jumpStyle=none;jumpSize=6;" parent="1" edge="1">
                    <mxGeometry width="50" height="50" relative="1" as="geometry">
                        <mxPoint x="3575.569999999998" y="721.4200000000001" as="sourcePoint"/>
                        <mxPoint x="3585.569999999998" y="710.9200000000001" as="targetPoint"/>
                    </mxGeometry>
                </mxCell>
                <mxCell id="94" value="" style="endArrow=none;html=1;rounded=0;startSize=1;endSize=1;strokeColor=#000000;strokeWidth=4;jumpStyle=none;jumpSize=6;" parent="1" edge="1">
                    <mxGeometry width="50" height="50" relative="1" as="geometry">
                        <mxPoint x="3585.569999999998" y="710.9200000000001" as="sourcePoint"/>
                        <mxPoint x="3595.569999999998" y="720.9200000000001" as="targetPoint"/>
                    </mxGeometry>
                </mxCell>
                <mxCell id="95" style="edgeStyle=orthogonalEdgeStyle;rounded=0;jumpStyle=none;jumpSize=6;orthogonalLoop=1;jettySize=auto;html=1;entryX=0.214;entryY=0.991;entryDx=0;entryDy=0;startArrow=none;startFill=0;endArrow=classic;endFill=1;startSize=1;endSize=1;strokeColor=#000000;strokeWidth=2;entryPerimeter=0;" parent="1" source="87" target="98" edge="1">
                    <mxGeometry relative="1" as="geometry">
                        <Array as="points">
                            <mxPoint x="3515.5699999999997" y="743"/>
                            <mxPoint x="3515.5699999999997" y="705"/>
                            <mxPoint x="3536.5699999999997" y="705"/>
                        </Array>
                    </mxGeometry>
                </mxCell>
                <mxCell id="96" style="rounded=1;orthogonalLoop=1;jettySize=auto;html=1;exitX=0;exitY=0.5;exitDx=0;exitDy=0;entryX=0;entryY=0.5;entryDx=0;entryDy=0;fontSize=30;fontColor=#990000;startArrow=none;startFill=0;endArrow=classic;endFill=1;strokeWidth=2;edgeStyle=orthogonalEdgeStyle;" parent="1" source="82" target="87" edge="1">
                    <mxGeometry relative="1" as="geometry">
                        <Array as="points">
                            <mxPoint x="3435.5699999999997" y="705"/>
                            <mxPoint x="3435.5699999999997" y="743"/>
                            <mxPoint x="3465.5699999999997" y="743"/>
                        </Array>
                    </mxGeometry>
                </mxCell>
                <mxCell id="97" style="edgeStyle=orthogonalEdgeStyle;orthogonalLoop=1;jettySize=auto;html=1;entryX=0;entryY=0.25;entryDx=0;entryDy=0;fontSize=12;fontColor=#000000;strokeWidth=2;endSize=0;rounded=1;fillColor=#f8cecc;strokeColor=#b85450;" parent="1" source="98" target="92" edge="1">
                    <mxGeometry relative="1" as="geometry">
                        <Array as="points">
                            <mxPoint x="3565.5699999999997" y="717"/>
                            <mxPoint x="3565.5699999999997" y="696"/>
                        </Array>
                    </mxGeometry>
                </mxCell>
                <mxCell id="98" value="" style="shape=trapezoid;perimeter=trapezoidPerimeter;whiteSpace=wrap;html=1;fixedSize=1;fontSize=12;fontColor=#000000;strokeWidth=1;fillColor=#FFD966;rotation=90;size=7.5;" parent="1" vertex="1">
                    <mxGeometry x="3522.2" y="710.92" width="41.25" height="12.5" as="geometry"/>
                </mxCell>
                <mxCell id="99" value="" style="whiteSpace=wrap;html=1;aspect=fixed;strokeColor=#000000;strokeWidth=4;fillColor=#FFFFCC;" parent="1" vertex="1">
                    <mxGeometry x="3444.5299999999993" y="680.91" width="27.5" height="27.5" as="geometry"/>
                </mxCell>
                <mxCell id="100" style="edgeStyle=orthogonalEdgeStyle;rounded=0;orthogonalLoop=1;jettySize=auto;html=1;fontSize=30;fontColor=#990000;startArrow=none;startFill=0;endArrow=none;endFill=0;strokeWidth=5;fillColor=#f8cecc;" parent="1" edge="1">
                    <mxGeometry relative="1" as="geometry">
                        <mxPoint x="3395.4799999999996" y="707.3199999999997" as="targetPoint"/>
                        <Array as="points">
                            <mxPoint x="3375.4799999999996" y="707.3199999999999"/>
                            <mxPoint x="3375.4799999999996" y="707.3199999999999"/>
                        </Array>
                        <mxPoint x="3330.5699999999997" y="707" as="sourcePoint"/>
                    </mxGeometry>
                </mxCell>
                <mxCell id="101" value="" style="ellipse;whiteSpace=wrap;html=1;aspect=fixed;fontSize=30;strokeColor=#000000;fillColor=#FFD966;opacity=80;" parent="1" vertex="1">
                    <mxGeometry x="3675.3999999999996" y="596" width="214.83" height="214.83" as="geometry"/>
                </mxCell>
                <mxCell id="102" value="" style="ellipse;whiteSpace=wrap;html=1;aspect=fixed;fillColor=#67AB9F;strokeWidth=4;strokeColor=#000000;" parent="1" vertex="1">
                    <mxGeometry x="3762.0299999999993" y="637.91" width="40" height="40" as="geometry"/>
                </mxCell>
                <mxCell id="103" value="" style="endArrow=none;html=1;rounded=0;strokeColor=#000000;strokeWidth=4;exitX=0;exitY=0;exitDx=0;exitDy=0;entryX=1;entryY=1;entryDx=0;entryDy=0;" parent="1" source="102" target="102" edge="1">
                    <mxGeometry width="50" height="50" relative="1" as="geometry">
                        <mxPoint x="3777.8099999999995" y="669.66" as="sourcePoint"/>
                        <mxPoint x="3802.8099999999995" y="638.41" as="targetPoint"/>
                    </mxGeometry>
                </mxCell>
                <mxCell id="104" value="" style="endArrow=none;html=1;rounded=0;strokeColor=#000000;strokeWidth=4;exitX=0;exitY=1;exitDx=0;exitDy=0;entryX=1;entryY=0;entryDx=0;entryDy=0;" parent="1" source="102" target="102" edge="1">
                    <mxGeometry width="50" height="50" relative="1" as="geometry">
                        <mxPoint x="3733.667864376269" y="614.4823304703363" as="sourcePoint"/>
                        <mxPoint x="3762.1214841176047" y="649.6234181196966" as="targetPoint"/>
                    </mxGeometry>
                </mxCell>
                <mxCell id="105" style="edgeStyle=orthogonalEdgeStyle;jumpStyle=none;jumpSize=6;orthogonalLoop=1;jettySize=auto;html=1;entryX=0;entryY=0.5;entryDx=0;entryDy=0;startArrow=none;startFill=0;endArrow=classic;endFill=1;startSize=1;endSize=1;strokeColor=#000000;strokeWidth=3;rounded=1;exitX=0.5;exitY=0;exitDx=0;exitDy=0;" parent="1" source="118" target="102" edge="1">
                    <mxGeometry relative="1" as="geometry">
                        <Array as="points">
                            <mxPoint x="3738.3999999999996" y="658"/>
                            <mxPoint x="3762.3999999999996" y="658"/>
                        </Array>
                    </mxGeometry>
                </mxCell>
                <mxCell id="106" value="" style="ellipse;whiteSpace=wrap;html=1;aspect=fixed;fillColor=#e1d5e7;strokeColor=#000000;strokeWidth=4;" parent="1" vertex="1">
                    <mxGeometry x="3745.399999999999" y="721.4200000000001" width="40" height="40" as="geometry"/>
                </mxCell>
                <mxCell id="107" value="" style="endArrow=none;html=1;rounded=0;strokeColor=#000000;entryX=0.5;entryY=0;entryDx=0;entryDy=0;exitX=0.5;exitY=1;exitDx=0;exitDy=0;strokeWidth=4;" parent="1" source="106" target="106" edge="1">
                    <mxGeometry width="50" height="50" relative="1" as="geometry">
                        <mxPoint x="3772.8099999999995" y="684.41" as="sourcePoint"/>
                        <mxPoint x="3822.8099999999995" y="634.41" as="targetPoint"/>
                    </mxGeometry>
                </mxCell>
                <mxCell id="108" style="edgeStyle=orthogonalEdgeStyle;rounded=1;jumpStyle=none;jumpSize=6;orthogonalLoop=1;jettySize=auto;html=1;entryX=0.5;entryY=0;entryDx=0;entryDy=0;startArrow=none;startFill=0;endArrow=classic;endFill=1;startSize=1;endSize=1;strokeColor=#000000;strokeWidth=4;" parent="1" source="102" target="106" edge="1">
                    <mxGeometry relative="1" as="geometry"/>
                </mxCell>
                <mxCell id="109" value="" style="endArrow=none;html=1;rounded=0;strokeColor=#000000;entryX=0;entryY=0.5;entryDx=0;entryDy=0;exitX=1;exitY=0.5;exitDx=0;exitDy=0;strokeWidth=4;" parent="1" source="106" target="106" edge="1">
                    <mxGeometry width="50" height="50" relative="1" as="geometry">
                        <mxPoint x="3822.8099999999995" y="584.41" as="sourcePoint"/>
                        <mxPoint x="3822.8099999999995" y="524.41" as="targetPoint"/>
                    </mxGeometry>
                </mxCell>
                <mxCell id="110" style="edgeStyle=orthogonalEdgeStyle;rounded=1;orthogonalLoop=1;jettySize=auto;html=1;exitX=1;exitY=0.5;exitDx=0;exitDy=0;entryX=1;entryY=0.5;entryDx=0;entryDy=0;fontSize=30;fontColor=#990000;startArrow=none;startFill=0;endArrow=classic;endFill=1;strokeWidth=2;fillColor=#f8cecc;strokeColor=#b85450;" parent="1" source="111" target="101" edge="1">
                    <mxGeometry relative="1" as="geometry">
                        <Array as="points"/>
                    </mxGeometry>
                </mxCell>
                <mxCell id="111" value="" style="rounded=0;whiteSpace=wrap;html=1;glass=0;strokeColor=#000000;strokeWidth=4;fillColor=#FFD966;" parent="1" vertex="1">
                    <mxGeometry x="3855.399999999999" y="685.4200000000001" width="20" height="36" as="geometry"/>
                </mxCell>
                <mxCell id="112" value="" style="endArrow=none;html=1;rounded=0;startSize=1;endSize=1;strokeColor=#000000;strokeWidth=4;jumpStyle=none;jumpSize=6;" parent="1" edge="1">
                    <mxGeometry width="50" height="50" relative="1" as="geometry">
                        <mxPoint x="3855.399999999998" y="719.4200000000001" as="sourcePoint"/>
                        <mxPoint x="3865.399999999998" y="708.9200000000001" as="targetPoint"/>
                    </mxGeometry>
                </mxCell>
                <mxCell id="113" value="" style="endArrow=none;html=1;rounded=0;startSize=1;endSize=1;strokeColor=#000000;strokeWidth=4;jumpStyle=none;jumpSize=6;" parent="1" edge="1">
                    <mxGeometry width="50" height="50" relative="1" as="geometry">
                        <mxPoint x="3865.399999999998" y="708.9200000000001" as="sourcePoint"/>
                        <mxPoint x="3875.399999999998" y="718.9200000000001" as="targetPoint"/>
                    </mxGeometry>
                </mxCell>
                <mxCell id="114" style="edgeStyle=orthogonalEdgeStyle;rounded=0;jumpStyle=none;jumpSize=6;orthogonalLoop=1;jettySize=auto;html=1;entryX=0.214;entryY=0.991;entryDx=0;entryDy=0;startArrow=none;startFill=0;endArrow=classic;endFill=1;startSize=1;endSize=1;strokeColor=#000000;strokeWidth=2;entryPerimeter=0;" parent="1" source="106" target="117" edge="1">
                    <mxGeometry relative="1" as="geometry">
                        <Array as="points">
                            <mxPoint x="3795.3999999999996" y="741"/>
                            <mxPoint x="3795.3999999999996" y="703"/>
                            <mxPoint x="3816.3999999999996" y="703"/>
                        </Array>
                    </mxGeometry>
                </mxCell>
                <mxCell id="115" style="rounded=1;orthogonalLoop=1;jettySize=auto;html=1;exitX=0;exitY=0.5;exitDx=0;exitDy=0;entryX=0;entryY=0.5;entryDx=0;entryDy=0;fontSize=30;fontColor=#990000;startArrow=none;startFill=0;endArrow=classic;endFill=1;strokeWidth=2;edgeStyle=orthogonalEdgeStyle;" parent="1" source="101" target="106" edge="1">
                    <mxGeometry relative="1" as="geometry">
                        <Array as="points">
                            <mxPoint x="3715.3999999999996" y="703"/>
                            <mxPoint x="3715.3999999999996" y="741"/>
                            <mxPoint x="3745.3999999999996" y="741"/>
                        </Array>
                    </mxGeometry>
                </mxCell>
                <mxCell id="116" style="edgeStyle=orthogonalEdgeStyle;orthogonalLoop=1;jettySize=auto;html=1;entryX=0;entryY=0.25;entryDx=0;entryDy=0;fontSize=12;fontColor=#000000;strokeWidth=2;endSize=0;rounded=1;fillColor=#f8cecc;strokeColor=#b85450;" parent="1" source="117" target="111" edge="1">
                    <mxGeometry relative="1" as="geometry">
                        <Array as="points">
                            <mxPoint x="3845.3999999999996" y="715"/>
                            <mxPoint x="3845.3999999999996" y="694"/>
                        </Array>
                    </mxGeometry>
                </mxCell>
                <mxCell id="117" value="" style="shape=trapezoid;perimeter=trapezoidPerimeter;whiteSpace=wrap;html=1;fixedSize=1;fontSize=12;fontColor=#000000;strokeWidth=1;fillColor=#FFD966;rotation=90;size=7.5;" parent="1" vertex="1">
                    <mxGeometry x="3802.0299999999997" y="708.92" width="41.25" height="12.5" as="geometry"/>
                </mxCell>
                <mxCell id="118" value="" style="whiteSpace=wrap;html=1;aspect=fixed;strokeColor=#000000;strokeWidth=4;fillColor=#FFFFCC;" parent="1" vertex="1">
                    <mxGeometry x="3724.359999999999" y="678.91" width="27.5" height="27.5" as="geometry"/>
                </mxCell>
                <mxCell id="119" style="edgeStyle=orthogonalEdgeStyle;rounded=0;orthogonalLoop=1;jettySize=auto;html=1;fontSize=30;fontColor=#990000;startArrow=none;startFill=0;endArrow=none;endFill=0;strokeWidth=5;fillColor=#f8cecc;" parent="1" edge="1">
                    <mxGeometry relative="1" as="geometry">
                        <mxPoint x="3675.3099999999995" y="705.3199999999997" as="targetPoint"/>
                        <Array as="points">
                            <mxPoint x="3655.3099999999995" y="705.3199999999999"/>
                            <mxPoint x="3655.3099999999995" y="705.3199999999999"/>
                        </Array>
                        <mxPoint x="3610.3999999999996" y="705" as="sourcePoint"/>
                    </mxGeometry>
                </mxCell>
                <mxCell id="120" value="" style="ellipse;whiteSpace=wrap;html=1;aspect=fixed;fontSize=30;strokeColor=#000000;fillColor=#FFD966;opacity=80;" parent="1" vertex="1">
                    <mxGeometry x="3115" y="884.83" width="214.83" height="214.83" as="geometry"/>
                </mxCell>
                <mxCell id="121" value="" style="ellipse;whiteSpace=wrap;html=1;aspect=fixed;fillColor=#67AB9F;strokeWidth=4;strokeColor=#000000;" parent="1" vertex="1">
                    <mxGeometry x="3201.6299999999997" y="926.74" width="40" height="40" as="geometry"/>
                </mxCell>
                <mxCell id="122" value="" style="endArrow=none;html=1;rounded=0;strokeColor=#000000;strokeWidth=4;exitX=0;exitY=0;exitDx=0;exitDy=0;entryX=1;entryY=1;entryDx=0;entryDy=0;" parent="1" source="121" target="121" edge="1">
                    <mxGeometry width="50" height="50" relative="1" as="geometry">
                        <mxPoint x="3217.41" y="958.49" as="sourcePoint"/>
                        <mxPoint x="3242.41" y="927.24" as="targetPoint"/>
                    </mxGeometry>
                </mxCell>
                <mxCell id="123" value="" style="endArrow=none;html=1;rounded=0;strokeColor=#000000;strokeWidth=4;exitX=0;exitY=1;exitDx=0;exitDy=0;entryX=1;entryY=0;entryDx=0;entryDy=0;" parent="1" source="121" target="121" edge="1">
                    <mxGeometry width="50" height="50" relative="1" as="geometry">
                        <mxPoint x="3173.2678643762692" y="903.3123304703363" as="sourcePoint"/>
                        <mxPoint x="3201.721484117605" y="938.4534181196966" as="targetPoint"/>
                    </mxGeometry>
                </mxCell>
                <mxCell id="124" style="edgeStyle=orthogonalEdgeStyle;jumpStyle=none;jumpSize=6;orthogonalLoop=1;jettySize=auto;html=1;entryX=0;entryY=0.5;entryDx=0;entryDy=0;startArrow=none;startFill=0;endArrow=classic;endFill=1;startSize=1;endSize=1;strokeColor=#000000;strokeWidth=3;rounded=1;exitX=0.5;exitY=0;exitDx=0;exitDy=0;" parent="1" source="138" target="121" edge="1">
                    <mxGeometry relative="1" as="geometry">
                        <Array as="points">
                            <mxPoint x="3178" y="946.83"/>
                            <mxPoint x="3202" y="946.83"/>
                        </Array>
                    </mxGeometry>
                </mxCell>
                <mxCell id="125" value="" style="ellipse;whiteSpace=wrap;html=1;aspect=fixed;fillColor=#e1d5e7;strokeColor=#000000;strokeWidth=4;" parent="1" vertex="1">
                    <mxGeometry x="3184.9999999999995" y="1010.2500000000001" width="40" height="40" as="geometry"/>
                </mxCell>
                <mxCell id="126" value="" style="endArrow=none;html=1;rounded=0;strokeColor=#000000;entryX=0.5;entryY=0;entryDx=0;entryDy=0;exitX=0.5;exitY=1;exitDx=0;exitDy=0;strokeWidth=4;" parent="1" source="125" target="125" edge="1">
                    <mxGeometry width="50" height="50" relative="1" as="geometry">
                        <mxPoint x="3212.41" y="973.24" as="sourcePoint"/>
                        <mxPoint x="3262.41" y="923.24" as="targetPoint"/>
                    </mxGeometry>
                </mxCell>
                <mxCell id="127" style="edgeStyle=orthogonalEdgeStyle;rounded=1;jumpStyle=none;jumpSize=6;orthogonalLoop=1;jettySize=auto;html=1;entryX=0.5;entryY=0;entryDx=0;entryDy=0;startArrow=none;startFill=0;endArrow=classic;endFill=1;startSize=1;endSize=1;strokeColor=#000000;strokeWidth=4;" parent="1" source="121" target="125" edge="1">
                    <mxGeometry relative="1" as="geometry"/>
                </mxCell>
                <mxCell id="128" value="" style="endArrow=none;html=1;rounded=0;strokeColor=#000000;entryX=0;entryY=0.5;entryDx=0;entryDy=0;exitX=1;exitY=0.5;exitDx=0;exitDy=0;strokeWidth=4;" parent="1" source="125" target="125" edge="1">
                    <mxGeometry width="50" height="50" relative="1" as="geometry">
                        <mxPoint x="3262.41" y="873.24" as="sourcePoint"/>
                        <mxPoint x="3262.41" y="813.24" as="targetPoint"/>
                    </mxGeometry>
                </mxCell>
                <mxCell id="129" style="edgeStyle=orthogonalEdgeStyle;rounded=1;orthogonalLoop=1;jettySize=auto;html=1;exitX=1;exitY=0.5;exitDx=0;exitDy=0;entryX=1;entryY=0.5;entryDx=0;entryDy=0;fontSize=30;fontColor=#990000;startArrow=none;startFill=0;endArrow=classic;endFill=1;strokeWidth=2;fillColor=#f8cecc;strokeColor=#b85450;" parent="1" source="130" target="120" edge="1">
                    <mxGeometry relative="1" as="geometry">
                        <Array as="points"/>
                    </mxGeometry>
                </mxCell>
                <mxCell id="130" value="" style="rounded=0;whiteSpace=wrap;html=1;glass=0;strokeColor=#000000;strokeWidth=4;fillColor=#FFD966;" parent="1" vertex="1">
                    <mxGeometry x="3294.9999999999995" y="974.2500000000001" width="20" height="36" as="geometry"/>
                </mxCell>
                <mxCell id="131" value="" style="endArrow=none;html=1;rounded=0;startSize=1;endSize=1;strokeColor=#000000;strokeWidth=4;jumpStyle=none;jumpSize=6;" parent="1" edge="1">
                    <mxGeometry width="50" height="50" relative="1" as="geometry">
                        <mxPoint x="3294.999999999998" y="1008.25" as="sourcePoint"/>
                        <mxPoint x="3304.999999999998" y="997.75" as="targetPoint"/>
                    </mxGeometry>
                </mxCell>
                <mxCell id="132" value="" style="endArrow=none;html=1;rounded=0;startSize=1;endSize=1;strokeColor=#000000;strokeWidth=4;jumpStyle=none;jumpSize=6;" parent="1" edge="1">
                    <mxGeometry width="50" height="50" relative="1" as="geometry">
                        <mxPoint x="3304.999999999998" y="997.75" as="sourcePoint"/>
                        <mxPoint x="3314.999999999998" y="1007.75" as="targetPoint"/>
                    </mxGeometry>
                </mxCell>
                <mxCell id="133" style="edgeStyle=orthogonalEdgeStyle;rounded=0;jumpStyle=none;jumpSize=6;orthogonalLoop=1;jettySize=auto;html=1;entryX=0.214;entryY=0.991;entryDx=0;entryDy=0;startArrow=none;startFill=0;endArrow=classic;endFill=1;startSize=1;endSize=1;strokeColor=#000000;strokeWidth=2;entryPerimeter=0;" parent="1" source="125" target="136" edge="1">
                    <mxGeometry relative="1" as="geometry">
                        <Array as="points">
                            <mxPoint x="3235" y="1029.83"/>
                            <mxPoint x="3235" y="991.83"/>
                            <mxPoint x="3256" y="991.83"/>
                        </Array>
                    </mxGeometry>
                </mxCell>
                <mxCell id="134" style="rounded=1;orthogonalLoop=1;jettySize=auto;html=1;exitX=0;exitY=0.5;exitDx=0;exitDy=0;entryX=0;entryY=0.5;entryDx=0;entryDy=0;fontSize=30;fontColor=#990000;startArrow=none;startFill=0;endArrow=classic;endFill=1;strokeWidth=2;edgeStyle=orthogonalEdgeStyle;" parent="1" source="120" target="125" edge="1">
                    <mxGeometry relative="1" as="geometry">
                        <Array as="points">
                            <mxPoint x="3155" y="991.83"/>
                            <mxPoint x="3155" y="1029.83"/>
                            <mxPoint x="3185" y="1029.83"/>
                        </Array>
                    </mxGeometry>
                </mxCell>
                <mxCell id="135" style="edgeStyle=orthogonalEdgeStyle;orthogonalLoop=1;jettySize=auto;html=1;entryX=0;entryY=0.25;entryDx=0;entryDy=0;fontSize=12;fontColor=#000000;strokeWidth=2;endSize=0;rounded=1;fillColor=#f8cecc;strokeColor=#b85450;" parent="1" source="136" target="130" edge="1">
                    <mxGeometry relative="1" as="geometry">
                        <Array as="points">
                            <mxPoint x="3285" y="1003.83"/>
                            <mxPoint x="3285" y="982.83"/>
                        </Array>
                    </mxGeometry>
                </mxCell>
                <mxCell id="136" value="" style="shape=trapezoid;perimeter=trapezoidPerimeter;whiteSpace=wrap;html=1;fixedSize=1;fontSize=12;fontColor=#000000;strokeWidth=1;fillColor=#FFD966;rotation=90;size=7.5;" parent="1" vertex="1">
                    <mxGeometry x="3241.63" y="997.75" width="41.25" height="12.5" as="geometry"/>
                </mxCell>
                <mxCell id="137" value="" style="endArrow=none;html=1;rounded=1;fontSize=12;fontColor=#000000;startSize=0;endSize=0;strokeWidth=4;entryX=0.5;entryY=0;entryDx=0;entryDy=0;startArrow=none;startFill=0;endFill=0;" parent="1" target="120" edge="1">
                    <mxGeometry width="50" height="50" relative="1" as="geometry">
                        <mxPoint x="3222" y="814.8299999999999" as="sourcePoint"/>
                        <mxPoint x="3215" y="804.83" as="targetPoint"/>
                    </mxGeometry>
                </mxCell>
                <mxCell id="138" value="" style="whiteSpace=wrap;html=1;aspect=fixed;strokeColor=#000000;strokeWidth=4;fillColor=#FFFFCC;" parent="1" vertex="1">
                    <mxGeometry x="3163.9599999999996" y="967.74" width="27.5" height="27.5" as="geometry"/>
                </mxCell>
                <mxCell id="139" style="edgeStyle=orthogonalEdgeStyle;rounded=0;orthogonalLoop=1;jettySize=auto;html=1;fontSize=30;fontColor=#990000;startArrow=none;startFill=0;endArrow=none;endFill=0;strokeWidth=5;fillColor=#f8cecc;" parent="1" edge="1">
                    <mxGeometry relative="1" as="geometry">
                        <mxPoint x="3114.91" y="992.1499999999996" as="targetPoint"/>
                        <Array as="points">
                            <mxPoint x="3094.91" y="992.15"/>
                            <mxPoint x="3094.91" y="992.15"/>
                        </Array>
                        <mxPoint x="3050" y="991.8299999999999" as="sourcePoint"/>
                    </mxGeometry>
                </mxCell>
                <mxCell id="140" value="" style="ellipse;whiteSpace=wrap;html=1;aspect=fixed;fontSize=30;strokeColor=#000000;fillColor=#FFD966;opacity=80;" parent="1" vertex="1">
                    <mxGeometry x="3394.83" y="882.83" width="214.83" height="214.83" as="geometry"/>
                </mxCell>
                <mxCell id="141" value="" style="ellipse;whiteSpace=wrap;html=1;aspect=fixed;fillColor=#67AB9F;strokeWidth=4;strokeColor=#000000;" parent="1" vertex="1">
                    <mxGeometry x="3481.4599999999996" y="924.74" width="40" height="40" as="geometry"/>
                </mxCell>
                <mxCell id="142" value="" style="endArrow=none;html=1;rounded=0;strokeColor=#000000;strokeWidth=4;exitX=0;exitY=0;exitDx=0;exitDy=0;entryX=1;entryY=1;entryDx=0;entryDy=0;" parent="1" source="141" target="141" edge="1">
                    <mxGeometry width="50" height="50" relative="1" as="geometry">
                        <mxPoint x="3497.24" y="956.49" as="sourcePoint"/>
                        <mxPoint x="3522.24" y="925.24" as="targetPoint"/>
                    </mxGeometry>
                </mxCell>
                <mxCell id="143" value="" style="endArrow=none;html=1;rounded=0;strokeColor=#000000;strokeWidth=4;exitX=0;exitY=1;exitDx=0;exitDy=0;entryX=1;entryY=0;entryDx=0;entryDy=0;" parent="1" source="141" target="141" edge="1">
                    <mxGeometry width="50" height="50" relative="1" as="geometry">
                        <mxPoint x="3453.097864376269" y="901.3123304703363" as="sourcePoint"/>
                        <mxPoint x="3481.551484117605" y="936.4534181196966" as="targetPoint"/>
                    </mxGeometry>
                </mxCell>
                <mxCell id="144" style="edgeStyle=orthogonalEdgeStyle;jumpStyle=none;jumpSize=6;orthogonalLoop=1;jettySize=auto;html=1;entryX=0;entryY=0.5;entryDx=0;entryDy=0;startArrow=none;startFill=0;endArrow=classic;endFill=1;startSize=1;endSize=1;strokeColor=#000000;strokeWidth=3;rounded=1;exitX=0.5;exitY=0;exitDx=0;exitDy=0;" parent="1" source="157" target="141" edge="1">
                    <mxGeometry relative="1" as="geometry">
                        <Array as="points">
                            <mxPoint x="3457.83" y="944.83"/>
                            <mxPoint x="3481.83" y="944.83"/>
                        </Array>
                    </mxGeometry>
                </mxCell>
                <mxCell id="145" value="" style="ellipse;whiteSpace=wrap;html=1;aspect=fixed;fillColor=#e1d5e7;strokeColor=#000000;strokeWidth=4;" parent="1" vertex="1">
                    <mxGeometry x="3464.8299999999995" y="1008.2500000000001" width="40" height="40" as="geometry"/>
                </mxCell>
                <mxCell id="146" value="" style="endArrow=none;html=1;rounded=0;strokeColor=#000000;entryX=0.5;entryY=0;entryDx=0;entryDy=0;exitX=0.5;exitY=1;exitDx=0;exitDy=0;strokeWidth=4;" parent="1" source="145" target="145" edge="1">
                    <mxGeometry width="50" height="50" relative="1" as="geometry">
                        <mxPoint x="3492.24" y="971.24" as="sourcePoint"/>
                        <mxPoint x="3542.24" y="921.24" as="targetPoint"/>
                    </mxGeometry>
                </mxCell>
                <mxCell id="147" style="edgeStyle=orthogonalEdgeStyle;rounded=1;jumpStyle=none;jumpSize=6;orthogonalLoop=1;jettySize=auto;html=1;entryX=0.5;entryY=0;entryDx=0;entryDy=0;startArrow=none;startFill=0;endArrow=classic;endFill=1;startSize=1;endSize=1;strokeColor=#000000;strokeWidth=4;" parent="1" source="141" target="145" edge="1">
                    <mxGeometry relative="1" as="geometry"/>
                </mxCell>
                <mxCell id="148" value="" style="endArrow=none;html=1;rounded=0;strokeColor=#000000;entryX=0;entryY=0.5;entryDx=0;entryDy=0;exitX=1;exitY=0.5;exitDx=0;exitDy=0;strokeWidth=4;" parent="1" source="145" target="145" edge="1">
                    <mxGeometry width="50" height="50" relative="1" as="geometry">
                        <mxPoint x="3542.24" y="871.24" as="sourcePoint"/>
                        <mxPoint x="3542.24" y="811.24" as="targetPoint"/>
                    </mxGeometry>
                </mxCell>
                <mxCell id="149" style="edgeStyle=orthogonalEdgeStyle;rounded=1;orthogonalLoop=1;jettySize=auto;html=1;exitX=1;exitY=0.5;exitDx=0;exitDy=0;entryX=1;entryY=0.5;entryDx=0;entryDy=0;fontSize=30;fontColor=#990000;startArrow=none;startFill=0;endArrow=classic;endFill=1;strokeWidth=2;fillColor=#f8cecc;strokeColor=#b85450;" parent="1" source="150" target="140" edge="1">
                    <mxGeometry relative="1" as="geometry">
                        <Array as="points"/>
                    </mxGeometry>
                </mxCell>
                <mxCell id="150" value="" style="rounded=0;whiteSpace=wrap;html=1;glass=0;strokeColor=#000000;strokeWidth=4;fillColor=#FFD966;" parent="1" vertex="1">
                    <mxGeometry x="3574.8299999999995" y="972.2500000000001" width="20" height="36" as="geometry"/>
                </mxCell>
                <mxCell id="151" value="" style="endArrow=none;html=1;rounded=0;startSize=1;endSize=1;strokeColor=#000000;strokeWidth=4;jumpStyle=none;jumpSize=6;" parent="1" edge="1">
                    <mxGeometry width="50" height="50" relative="1" as="geometry">
                        <mxPoint x="3574.829999999998" y="1006.25" as="sourcePoint"/>
                        <mxPoint x="3584.829999999998" y="995.75" as="targetPoint"/>
                    </mxGeometry>
                </mxCell>
                <mxCell id="152" value="" style="endArrow=none;html=1;rounded=0;startSize=1;endSize=1;strokeColor=#000000;strokeWidth=4;jumpStyle=none;jumpSize=6;" parent="1" edge="1">
                    <mxGeometry width="50" height="50" relative="1" as="geometry">
                        <mxPoint x="3584.829999999998" y="995.75" as="sourcePoint"/>
                        <mxPoint x="3594.829999999998" y="1005.75" as="targetPoint"/>
                    </mxGeometry>
                </mxCell>
                <mxCell id="153" style="edgeStyle=orthogonalEdgeStyle;rounded=0;jumpStyle=none;jumpSize=6;orthogonalLoop=1;jettySize=auto;html=1;entryX=0.214;entryY=0.991;entryDx=0;entryDy=0;startArrow=none;startFill=0;endArrow=classic;endFill=1;startSize=1;endSize=1;strokeColor=#000000;strokeWidth=2;entryPerimeter=0;" parent="1" source="145" target="156" edge="1">
                    <mxGeometry relative="1" as="geometry">
                        <Array as="points">
                            <mxPoint x="3514.83" y="1027.83"/>
                            <mxPoint x="3514.83" y="989.83"/>
                            <mxPoint x="3535.83" y="989.83"/>
                        </Array>
                    </mxGeometry>
                </mxCell>
                <mxCell id="154" style="rounded=1;orthogonalLoop=1;jettySize=auto;html=1;exitX=0;exitY=0.5;exitDx=0;exitDy=0;entryX=0;entryY=0.5;entryDx=0;entryDy=0;fontSize=30;fontColor=#990000;startArrow=none;startFill=0;endArrow=classic;endFill=1;strokeWidth=2;edgeStyle=orthogonalEdgeStyle;" parent="1" source="140" target="145" edge="1">
                    <mxGeometry relative="1" as="geometry">
                        <Array as="points">
                            <mxPoint x="3434.83" y="989.83"/>
                            <mxPoint x="3434.83" y="1027.83"/>
                            <mxPoint x="3464.83" y="1027.83"/>
                        </Array>
                    </mxGeometry>
                </mxCell>
                <mxCell id="155" style="edgeStyle=orthogonalEdgeStyle;orthogonalLoop=1;jettySize=auto;html=1;entryX=0;entryY=0.25;entryDx=0;entryDy=0;fontSize=12;fontColor=#000000;strokeWidth=2;endSize=0;rounded=1;fillColor=#f8cecc;strokeColor=#b85450;" parent="1" source="156" target="150" edge="1">
                    <mxGeometry relative="1" as="geometry">
                        <Array as="points">
                            <mxPoint x="3564.83" y="1001.83"/>
                            <mxPoint x="3564.83" y="980.83"/>
                        </Array>
                    </mxGeometry>
                </mxCell>
                <mxCell id="156" value="" style="shape=trapezoid;perimeter=trapezoidPerimeter;whiteSpace=wrap;html=1;fixedSize=1;fontSize=12;fontColor=#000000;strokeWidth=1;fillColor=#FFD966;rotation=90;size=7.5;" parent="1" vertex="1">
                    <mxGeometry x="3521.46" y="995.75" width="41.25" height="12.5" as="geometry"/>
                </mxCell>
                <mxCell id="157" value="" style="whiteSpace=wrap;html=1;aspect=fixed;strokeColor=#000000;strokeWidth=4;fillColor=#FFFFCC;" parent="1" vertex="1">
                    <mxGeometry x="3443.7899999999995" y="965.74" width="27.5" height="27.5" as="geometry"/>
                </mxCell>
                <mxCell id="158" style="edgeStyle=orthogonalEdgeStyle;rounded=0;orthogonalLoop=1;jettySize=auto;html=1;fontSize=30;fontColor=#990000;startArrow=none;startFill=0;endArrow=none;endFill=0;strokeWidth=5;fillColor=#f8cecc;" parent="1" edge="1">
                    <mxGeometry relative="1" as="geometry">
                        <mxPoint x="3394.74" y="992.1499999999996" as="targetPoint"/>
                        <Array as="points">
                            <mxPoint x="3374.74" y="992.15"/>
                            <mxPoint x="3374.74" y="992.15"/>
                        </Array>
                        <mxPoint x="3329.83" y="991.8299999999999" as="sourcePoint"/>
                    </mxGeometry>
                </mxCell>
                <mxCell id="159" value="" style="ellipse;whiteSpace=wrap;html=1;aspect=fixed;fontSize=30;strokeColor=#000000;fillColor=#FFD966;opacity=80;" parent="1" vertex="1">
                    <mxGeometry x="3674.66" y="880.83" width="214.83" height="214.83" as="geometry"/>
                </mxCell>
                <mxCell id="160" value="" style="ellipse;whiteSpace=wrap;html=1;aspect=fixed;fillColor=#67AB9F;strokeWidth=4;strokeColor=#000000;" parent="1" vertex="1">
                    <mxGeometry x="3761.2899999999995" y="922.74" width="40" height="40" as="geometry"/>
                </mxCell>
                <mxCell id="161" value="" style="endArrow=none;html=1;rounded=0;strokeColor=#000000;strokeWidth=4;exitX=0;exitY=0;exitDx=0;exitDy=0;entryX=1;entryY=1;entryDx=0;entryDy=0;" parent="1" source="160" target="160" edge="1">
                    <mxGeometry width="50" height="50" relative="1" as="geometry">
                        <mxPoint x="3777.0699999999997" y="954.49" as="sourcePoint"/>
                        <mxPoint x="3802.0699999999997" y="923.24" as="targetPoint"/>
                    </mxGeometry>
                </mxCell>
                <mxCell id="162" value="" style="endArrow=none;html=1;rounded=0;strokeColor=#000000;strokeWidth=4;exitX=0;exitY=1;exitDx=0;exitDy=0;entryX=1;entryY=0;entryDx=0;entryDy=0;" parent="1" source="160" target="160" edge="1">
                    <mxGeometry width="50" height="50" relative="1" as="geometry">
                        <mxPoint x="3732.927864376269" y="899.3123304703363" as="sourcePoint"/>
                        <mxPoint x="3761.381484117605" y="934.4534181196966" as="targetPoint"/>
                    </mxGeometry>
                </mxCell>
                <mxCell id="163" style="edgeStyle=orthogonalEdgeStyle;jumpStyle=none;jumpSize=6;orthogonalLoop=1;jettySize=auto;html=1;entryX=0;entryY=0.5;entryDx=0;entryDy=0;startArrow=none;startFill=0;endArrow=classic;endFill=1;startSize=1;endSize=1;strokeColor=#000000;strokeWidth=3;rounded=1;exitX=0.5;exitY=0;exitDx=0;exitDy=0;" parent="1" source="176" target="160" edge="1">
                    <mxGeometry relative="1" as="geometry">
                        <Array as="points">
                            <mxPoint x="3737.66" y="942.83"/>
                            <mxPoint x="3761.66" y="942.83"/>
                        </Array>
                    </mxGeometry>
                </mxCell>
                <mxCell id="164" value="" style="ellipse;whiteSpace=wrap;html=1;aspect=fixed;fillColor=#e1d5e7;strokeColor=#000000;strokeWidth=4;" parent="1" vertex="1">
                    <mxGeometry x="3744.6599999999994" y="1006.2500000000001" width="40" height="40" as="geometry"/>
                </mxCell>
                <mxCell id="165" value="" style="endArrow=none;html=1;rounded=0;strokeColor=#000000;entryX=0.5;entryY=0;entryDx=0;entryDy=0;exitX=0.5;exitY=1;exitDx=0;exitDy=0;strokeWidth=4;" parent="1" source="164" target="164" edge="1">
                    <mxGeometry width="50" height="50" relative="1" as="geometry">
                        <mxPoint x="3772.0699999999997" y="969.24" as="sourcePoint"/>
                        <mxPoint x="3822.0699999999997" y="919.24" as="targetPoint"/>
                    </mxGeometry>
                </mxCell>
                <mxCell id="166" style="edgeStyle=orthogonalEdgeStyle;rounded=1;jumpStyle=none;jumpSize=6;orthogonalLoop=1;jettySize=auto;html=1;entryX=0.5;entryY=0;entryDx=0;entryDy=0;startArrow=none;startFill=0;endArrow=classic;endFill=1;startSize=1;endSize=1;strokeColor=#000000;strokeWidth=4;" parent="1" source="160" target="164" edge="1">
                    <mxGeometry relative="1" as="geometry"/>
                </mxCell>
                <mxCell id="167" value="" style="endArrow=none;html=1;rounded=0;strokeColor=#000000;entryX=0;entryY=0.5;entryDx=0;entryDy=0;exitX=1;exitY=0.5;exitDx=0;exitDy=0;strokeWidth=4;" parent="1" source="164" target="164" edge="1">
                    <mxGeometry width="50" height="50" relative="1" as="geometry">
                        <mxPoint x="3822.0699999999997" y="869.24" as="sourcePoint"/>
                        <mxPoint x="3822.0699999999997" y="809.24" as="targetPoint"/>
                    </mxGeometry>
                </mxCell>
                <mxCell id="168" style="edgeStyle=orthogonalEdgeStyle;rounded=1;orthogonalLoop=1;jettySize=auto;html=1;exitX=1;exitY=0.5;exitDx=0;exitDy=0;entryX=1;entryY=0.5;entryDx=0;entryDy=0;fontSize=30;fontColor=#990000;startArrow=none;startFill=0;endArrow=classic;endFill=1;strokeWidth=2;fillColor=#f8cecc;strokeColor=#b85450;" parent="1" source="169" target="159" edge="1">
                    <mxGeometry relative="1" as="geometry">
                        <Array as="points"/>
                    </mxGeometry>
                </mxCell>
                <mxCell id="169" value="" style="rounded=0;whiteSpace=wrap;html=1;glass=0;strokeColor=#000000;strokeWidth=4;fillColor=#FFD966;" parent="1" vertex="1">
                    <mxGeometry x="3854.6599999999994" y="970.2500000000001" width="20" height="36" as="geometry"/>
                </mxCell>
                <mxCell id="170" value="" style="endArrow=none;html=1;rounded=0;startSize=1;endSize=1;strokeColor=#000000;strokeWidth=4;jumpStyle=none;jumpSize=6;" parent="1" edge="1">
                    <mxGeometry width="50" height="50" relative="1" as="geometry">
                        <mxPoint x="3854.659999999998" y="1004.25" as="sourcePoint"/>
                        <mxPoint x="3864.659999999998" y="993.75" as="targetPoint"/>
                    </mxGeometry>
                </mxCell>
                <mxCell id="171" value="" style="endArrow=none;html=1;rounded=0;startSize=1;endSize=1;strokeColor=#000000;strokeWidth=4;jumpStyle=none;jumpSize=6;" parent="1" edge="1">
                    <mxGeometry width="50" height="50" relative="1" as="geometry">
                        <mxPoint x="3864.659999999998" y="993.75" as="sourcePoint"/>
                        <mxPoint x="3874.659999999998" y="1003.75" as="targetPoint"/>
                    </mxGeometry>
                </mxCell>
                <mxCell id="172" style="edgeStyle=orthogonalEdgeStyle;rounded=0;jumpStyle=none;jumpSize=6;orthogonalLoop=1;jettySize=auto;html=1;entryX=0.214;entryY=0.991;entryDx=0;entryDy=0;startArrow=none;startFill=0;endArrow=classic;endFill=1;startSize=1;endSize=1;strokeColor=#000000;strokeWidth=2;entryPerimeter=0;" parent="1" source="164" target="175" edge="1">
                    <mxGeometry relative="1" as="geometry">
                        <Array as="points">
                            <mxPoint x="3794.66" y="1025.83"/>
                            <mxPoint x="3794.66" y="987.83"/>
                            <mxPoint x="3815.66" y="987.83"/>
                        </Array>
                    </mxGeometry>
                </mxCell>
                <mxCell id="173" style="rounded=1;orthogonalLoop=1;jettySize=auto;html=1;exitX=0;exitY=0.5;exitDx=0;exitDy=0;entryX=0;entryY=0.5;entryDx=0;entryDy=0;fontSize=30;fontColor=#990000;startArrow=none;startFill=0;endArrow=classic;endFill=1;strokeWidth=2;edgeStyle=orthogonalEdgeStyle;" parent="1" source="159" target="164" edge="1">
                    <mxGeometry relative="1" as="geometry">
                        <Array as="points">
                            <mxPoint x="3714.66" y="987.83"/>
                            <mxPoint x="3714.66" y="1025.83"/>
                            <mxPoint x="3744.66" y="1025.83"/>
                        </Array>
                    </mxGeometry>
                </mxCell>
                <mxCell id="174" style="edgeStyle=orthogonalEdgeStyle;orthogonalLoop=1;jettySize=auto;html=1;entryX=0;entryY=0.25;entryDx=0;entryDy=0;fontSize=12;fontColor=#000000;strokeWidth=2;endSize=0;rounded=1;fillColor=#f8cecc;strokeColor=#b85450;" parent="1" source="175" target="169" edge="1">
                    <mxGeometry relative="1" as="geometry">
                        <Array as="points">
                            <mxPoint x="3844.66" y="999.83"/>
                            <mxPoint x="3844.66" y="978.83"/>
                        </Array>
                    </mxGeometry>
                </mxCell>
                <mxCell id="175" value="" style="shape=trapezoid;perimeter=trapezoidPerimeter;whiteSpace=wrap;html=1;fixedSize=1;fontSize=12;fontColor=#000000;strokeWidth=1;fillColor=#FFD966;rotation=90;size=7.5;" parent="1" vertex="1">
                    <mxGeometry x="3801.29" y="993.75" width="41.25" height="12.5" as="geometry"/>
                </mxCell>
                <mxCell id="176" value="" style="whiteSpace=wrap;html=1;aspect=fixed;strokeColor=#000000;strokeWidth=4;fillColor=#FFFFCC;" parent="1" vertex="1">
                    <mxGeometry x="3723.6199999999994" y="963.74" width="27.5" height="27.5" as="geometry"/>
                </mxCell>
                <mxCell id="177" style="edgeStyle=orthogonalEdgeStyle;rounded=0;orthogonalLoop=1;jettySize=auto;html=1;fontSize=30;fontColor=#990000;startArrow=none;startFill=0;endArrow=none;endFill=0;strokeWidth=5;fillColor=#f8cecc;" parent="1" edge="1">
                    <mxGeometry relative="1" as="geometry">
                        <mxPoint x="3674.5699999999997" y="990.1499999999996" as="targetPoint"/>
                        <Array as="points">
                            <mxPoint x="3654.5699999999997" y="990.15"/>
                            <mxPoint x="3654.5699999999997" y="990.15"/>
                        </Array>
                        <mxPoint x="3609.66" y="989.8299999999999" as="sourcePoint"/>
                    </mxGeometry>
                </mxCell>
                <mxCell id="178" value="O0" style="whiteSpace=wrap;html=1;aspect=fixed;strokeWidth=3;fontSize=50;fontStyle=1;fillColor=#CCFFCC;" parent="1" vertex="1">
                    <mxGeometry x="3151.6299999999997" y="90" width="140" height="140" as="geometry"/>
                </mxCell>
                <mxCell id="179" value="" style="rounded=0;whiteSpace=wrap;html=1;fontSize=50;fontColor=#000000;strokeColor=#000000;strokeWidth=6;fillColor=#000000;" parent="1" vertex="1">
                    <mxGeometry x="3206.6299999999997" y="229.69000000000005" width="30" height="11" as="geometry"/>
                </mxCell>
                <mxCell id="180" value="O1" style="whiteSpace=wrap;html=1;aspect=fixed;strokeWidth=3;fontSize=50;fontStyle=1;fillColor=#CCFFCC;" parent="1" vertex="1">
                    <mxGeometry x="3432.2499999999995" y="88" width="140" height="140" as="geometry"/>
                </mxCell>
                <mxCell id="181" value="" style="rounded=0;whiteSpace=wrap;html=1;fontSize=50;fontColor=#000000;strokeColor=#000000;strokeWidth=6;fillColor=#000000;" parent="1" vertex="1">
                    <mxGeometry x="3487.2499999999995" y="227.69000000000005" width="30" height="11" as="geometry"/>
                </mxCell>
                <mxCell id="182" value="O2" style="whiteSpace=wrap;html=1;aspect=fixed;strokeWidth=3;fontSize=50;fontStyle=1;fillColor=#CCFFCC;" parent="1" vertex="1">
                    <mxGeometry x="3712.0799999999995" y="86" width="140" height="140" as="geometry"/>
                </mxCell>
                <mxCell id="183" value="" style="rounded=0;whiteSpace=wrap;html=1;fontSize=50;fontColor=#000000;strokeColor=#000000;strokeWidth=6;fillColor=#000000;" parent="1" vertex="1">
                    <mxGeometry x="3767.0799999999995" y="225.69000000000005" width="30" height="11" as="geometry"/>
                </mxCell>
                <mxCell id="184" value="W0" style="whiteSpace=wrap;html=1;aspect=fixed;fillColor=#e1d5e7;strokeWidth=3;fontSize=50;fontStyle=1" parent="1" vertex="1">
                    <mxGeometry x="2899.9999999999995" y="347.42" width="140" height="140" as="geometry"/>
                </mxCell>
                <mxCell id="185" value="" style="rounded=0;whiteSpace=wrap;html=1;fontSize=50;fontColor=#000000;strokeColor=#000000;strokeWidth=6;fillColor=#000000;rotation=90;" parent="1" vertex="1">
                    <mxGeometry x="3029.9999999999995" y="411.9200000000001" width="30" height="11" as="geometry"/>
                </mxCell>
                <mxCell id="186" value="" style="endArrow=none;html=1;rounded=1;fontSize=12;fontColor=#000000;startSize=0;endSize=0;strokeWidth=4;entryX=0.5;entryY=0;entryDx=0;entryDy=0;startArrow=none;startFill=0;endFill=0;exitX=0.5;exitY=1;exitDx=0;exitDy=0;" parent="1" edge="1">
                    <mxGeometry width="50" height="50" relative="1" as="geometry">
                        <mxPoint x="3506.7250000000004" y="522.8299999999999" as="sourcePoint"/>
                        <mxPoint x="3506.7250000000004" y="598" as="targetPoint"/>
                    </mxGeometry>
                </mxCell>
                <mxCell id="187" value="" style="endArrow=none;html=1;rounded=1;fontSize=12;fontColor=#000000;startSize=0;endSize=0;strokeWidth=4;entryX=0.5;entryY=0;entryDx=0;entryDy=0;startArrow=none;startFill=0;endFill=0;" parent="1" edge="1">
                    <mxGeometry width="50" height="50" relative="1" as="geometry">
                        <mxPoint x="3505.5699999999997" y="812.8299999999999" as="sourcePoint"/>
                        <mxPoint x="3505.9850000000006" y="882.8299999999999" as="targetPoint"/>
                    </mxGeometry>
                </mxCell>
                <mxCell id="188" value="" style="endArrow=none;html=1;rounded=1;fontSize=12;fontColor=#000000;startSize=0;endSize=0;strokeWidth=4;entryX=0.5;entryY=0;entryDx=0;entryDy=0;startArrow=none;startFill=0;endFill=0;exitX=0.5;exitY=1;exitDx=0;exitDy=0;" parent="1" edge="1">
                    <mxGeometry width="50" height="50" relative="1" as="geometry">
                        <mxPoint x="3786.5550000000003" y="520.8299999999999" as="sourcePoint"/>
                        <mxPoint x="3786.5550000000003" y="596" as="targetPoint"/>
                    </mxGeometry>
                </mxCell>
                <mxCell id="189" value="" style="endArrow=none;html=1;rounded=1;fontSize=12;fontColor=#000000;startSize=0;endSize=0;strokeWidth=4;entryX=0.5;entryY=0;entryDx=0;entryDy=0;startArrow=none;startFill=0;endFill=0;" parent="1" edge="1">
                    <mxGeometry width="50" height="50" relative="1" as="geometry">
                        <mxPoint x="3785.3999999999996" y="810.8299999999999" as="sourcePoint"/>
                        <mxPoint x="3785.8150000000005" y="880.8299999999999" as="targetPoint"/>
                    </mxGeometry>
                </mxCell>
                <mxCell id="190" value="W1" style="whiteSpace=wrap;html=1;aspect=fixed;fillColor=#e1d5e7;strokeWidth=3;fontSize=50;fontStyle=1" parent="1" vertex="1">
                    <mxGeometry x="2899.9999999999995" y="637.4200000000001" width="140" height="140" as="geometry"/>
                </mxCell>
                <mxCell id="191" value="" style="rounded=0;whiteSpace=wrap;html=1;fontSize=50;fontColor=#000000;strokeColor=#000000;strokeWidth=6;fillColor=#000000;rotation=90;" parent="1" vertex="1">
                    <mxGeometry x="3029.9999999999995" y="701.9200000000001" width="30" height="11" as="geometry"/>
                </mxCell>
                <mxCell id="192" value="W2" style="whiteSpace=wrap;html=1;aspect=fixed;fillColor=#e1d5e7;strokeWidth=3;fontSize=50;fontStyle=1" parent="1" vertex="1">
                    <mxGeometry x="2899.9999999999995" y="922.24" width="140" height="140" as="geometry"/>
                </mxCell>
                <mxCell id="193" value="" style="rounded=0;whiteSpace=wrap;html=1;fontSize=50;fontColor=#000000;strokeColor=#000000;strokeWidth=6;fillColor=#000000;rotation=90;" parent="1" vertex="1">
                    <mxGeometry x="3029.9999999999995" y="986.74" width="30" height="11" as="geometry"/>
                </mxCell>
                <mxCell id="194" value="Ky = 0" style="text;html=1;strokeColor=none;fillColor=none;align=center;verticalAlign=middle;whiteSpace=wrap;rounded=0;fontSize=60;fontStyle=1" parent="1" vertex="1">
                    <mxGeometry x="2670" y="411.92" width="200" height="20" as="geometry"/>
                </mxCell>
                <mxCell id="195" value="Ky = 1" style="text;html=1;strokeColor=none;fillColor=none;align=center;verticalAlign=middle;whiteSpace=wrap;rounded=0;fontSize=60;fontStyle=1" parent="1" vertex="1">
                    <mxGeometry x="2680" y="697.41" width="190" height="20" as="geometry"/>
                </mxCell>
                <mxCell id="196" value="Ky = 2" style="text;html=1;strokeColor=none;fillColor=none;align=center;verticalAlign=middle;whiteSpace=wrap;rounded=0;fontSize=60;fontStyle=1" parent="1" vertex="1">
                    <mxGeometry x="2670" y="982.25" width="200" height="20" as="geometry"/>
                </mxCell>
                <mxCell id="197" value="y = 0" style="text;html=1;strokeColor=none;fillColor=none;align=center;verticalAlign=middle;whiteSpace=wrap;rounded=0;fontSize=60;fontStyle=1" parent="1" vertex="1">
                    <mxGeometry x="3151.63" y="40" width="158.37" height="20" as="geometry"/>
                </mxCell>
                <mxCell id="198" value="y = 1" style="text;html=1;strokeColor=none;fillColor=none;align=center;verticalAlign=middle;whiteSpace=wrap;rounded=0;fontSize=60;fontStyle=1" parent="1" vertex="1">
                    <mxGeometry x="3432.25" y="40" width="145.17" height="20" as="geometry"/>
                </mxCell>
                <mxCell id="199" value="y = 2" style="text;html=1;strokeColor=none;fillColor=none;align=center;verticalAlign=middle;whiteSpace=wrap;rounded=0;fontSize=60;fontStyle=1" parent="1" vertex="1">
                    <mxGeometry x="3709.77" y="40" width="144.6" height="20" as="geometry"/>
                </mxCell>
            </root>
        </mxGraphModel>
    </diagram>
</mxfile>